<svg width="182" height="182" viewBox="0 0 182 182" fill="none" xmlns="http://www.w3.org/2000/svg">
<path d="M45.5001 144.083V37.9165M45.5001 37.9165C37.4552 37.9165 29.7398 41.1123 24.0512 46.8009C18.3626 52.4895 15.1667 60.2049 15.1667 68.2498V144.083M45.5001 37.9165C60.6667 37.9165 75.8334 48.0023 91.0001 68.2498C106.167 88.4973 121.333 98.5832 136.5 98.5832M75.8334 144.083V51.5665M106.167 144.083V84.9332M136.5 37.9165V68.2498M136.5 144.083V98.5832M136.5 98.5832C141.566 98.5784 146.55 97.3051 150.997 94.8793C155.444 92.4535 159.213 88.9526 161.96 84.6961C164.706 80.4395 166.343 75.5629 166.721 70.5112C167.098 65.4596 166.205 60.3938 164.122 55.7762C162.038 51.1586 158.832 47.1362 154.795 44.0762C150.758 41.0161 146.019 39.0159 141.01 38.2579C136.001 37.5 130.882 38.0086 126.121 39.7372C121.359 41.4658 117.106 44.3594 113.75 48.154M166.833 144.083V68.2498" stroke="black" stroke-width="5" stroke-linecap="round" stroke-linejoin="round"/>
</svg>
