<svg width="21" height="21" viewBox="0 0 21 21" fill="none" xmlns="http://www.w3.org/2000/svg">
<g clip-path="url(#clip0_299_374)">
<path d="M16.5 19.6525H14.1C13.9666 19.6525 13.8333 19.7192 13.7 19.8525C13.5666 19.9859 13.5 20.1303 13.5 20.2859C13.5 20.4414 13.5666 20.5748 13.7 20.6859C13.8333 20.797 13.9666 20.8525 14.1 20.8525H16.5C16.6777 20.8525 16.8222 20.797 16.9333 20.6859C17.0444 20.5748 17.1 20.4414 17.1 20.2859C17.1 20.1303 17.0444 19.9859 16.9333 19.8525C16.8222 19.7192 16.6777 19.6525 16.5 19.6525ZM11.7666 19.6525H9.4333C9.25552 19.6525 9.11108 19.7192 8.99997 19.8525C8.88886 19.9859 8.8333 20.1303 8.8333 20.2859C8.8333 20.4414 8.88886 20.5748 8.99997 20.6859C9.11108 20.797 9.25552 20.8525 9.4333 20.8525H11.7666C11.9444 20.8525 12.0889 20.797 12.2 20.6859C12.3111 20.5748 12.3666 20.4414 12.3666 20.2859C12.3666 20.1303 12.3111 19.9859 12.2 19.8525C12.0889 19.7192 11.9444 19.6525 11.7666 19.6525ZM20.0333 9.05254C19.9 9.05254 19.7666 9.10809 19.6333 9.2192C19.5 9.33032 19.4333 9.47476 19.4333 9.65254V11.9859C19.4333 12.1636 19.5 12.3081 19.6333 12.4192C19.7666 12.5303 19.9111 12.5859 20.0666 12.5859C20.2222 12.5859 20.3555 12.5303 20.4666 12.4192C20.5777 12.3081 20.6333 12.1636 20.6333 11.9859V9.65254C20.6333 9.47476 20.5777 9.33032 20.4666 9.2192C20.3555 9.10809 20.2111 9.05254 20.0333 9.05254ZM20.0333 13.7192C19.9 13.7192 19.7666 13.7859 19.6333 13.9192C19.5 14.0525 19.4333 14.1859 19.4333 14.3192V16.6525C19.4333 16.8303 19.5 16.9748 19.6333 17.0859C19.7666 17.197 19.9111 17.2525 20.0666 17.2525C20.2222 17.2525 20.3555 17.197 20.4666 17.0859C20.5777 16.9748 20.6333 16.8303 20.6333 16.6525V14.3192C20.6333 14.1859 20.5777 14.0525 20.4666 13.9192C20.3555 13.7859 20.2111 13.7192 20.0333 13.7192ZM7.09997 19.6525H6.49997V19.1192C6.49997 18.9414 6.44441 18.797 6.3333 18.6859C6.22219 18.5748 6.07775 18.5192 5.89997 18.5192C5.72219 18.5192 5.57775 18.5748 5.46663 18.6859C5.35552 18.797 5.29997 18.9414 5.29997 19.1192V20.2525C5.29997 20.4303 5.35552 20.5748 5.46663 20.6859C5.57775 20.797 5.72219 20.8525 5.89997 20.8525H7.09997C7.2333 20.8525 7.35552 20.797 7.46663 20.6859C7.57775 20.5748 7.6333 20.4414 7.6333 20.2859C7.6333 20.1303 7.57775 19.9859 7.46663 19.8525C7.35552 19.7192 7.2333 19.6525 7.09997 19.6525ZM20.0333 5.51921H18.9C18.7222 5.51921 18.5777 5.57476 18.4666 5.68587C18.3555 5.79698 18.3 5.94143 18.3 6.1192C18.3 6.29698 18.3555 6.44143 18.4666 6.55254C18.5777 6.66365 18.7222 6.7192 18.9 6.7192H19.4333V7.31921C19.4333 7.45254 19.5 7.57476 19.6333 7.68587C19.7666 7.79698 19.9111 7.85254 20.0666 7.85254C20.2222 7.85254 20.3555 7.79698 20.4666 7.68587C20.5777 7.57476 20.6333 7.45254 20.6333 7.31921V6.1192C20.6333 5.94143 20.5777 5.79698 20.4666 5.68587C20.3555 5.57476 20.2111 5.51921 20.0333 5.51921ZM20.0333 18.5192C19.9 18.5192 19.7666 18.5748 19.6333 18.6859C19.5 18.797 19.4333 18.9414 19.4333 19.1192V19.6525H18.9C18.7222 19.6525 18.5777 19.7192 18.4666 19.8525C18.3555 19.9859 18.3 20.1303 18.3 20.2859C18.3 20.4414 18.3555 20.5748 18.4666 20.6859C18.5777 20.797 18.7222 20.8525 18.9 20.8525H20.0333C20.2111 20.8525 20.3555 20.797 20.4666 20.6859C20.5777 20.5748 20.6333 20.4303 20.6333 20.2525V19.1192C20.6333 18.9414 20.5777 18.797 20.4666 18.6859C20.3555 18.5748 20.2111 18.5192 20.0333 18.5192ZM16.5 5.51921H15.9V1.45254C15.9 1.27476 15.8333 1.13032 15.7 1.01921C15.5666 0.908094 15.4333 0.852537 15.3 0.852537H1.2333C1.05552 0.852537 0.911079 0.908094 0.799967 1.01921C0.688856 1.13032 0.633301 1.27476 0.633301 1.45254V15.5192C0.633301 15.6525 0.688856 15.7859 0.799967 15.9192C0.911079 16.0525 1.05552 16.1192 1.2333 16.1192H5.29997V16.6525C5.29997 16.8303 5.35552 16.9748 5.46663 17.0859C5.57775 17.197 5.72219 17.2525 5.89997 17.2525C6.07775 17.2525 6.22219 17.197 6.3333 17.0859C6.44441 16.9748 6.49997 16.8303 6.49997 16.6525V6.7192H16.5C16.6777 6.7192 16.8222 6.66365 16.9333 6.55254C17.0444 6.44143 17.1 6.29698 17.1 6.1192C17.1 5.94143 17.0444 5.79698 16.9333 5.68587C16.8222 5.57476 16.6777 5.51921 16.5 5.51921ZM14.7 5.51921H5.89997C5.72219 5.51921 5.57775 5.57476 5.46663 5.68587C5.35552 5.79698 5.29997 5.94143 5.29997 6.1192V14.9192H1.8333V2.05254H14.7V5.51921Z" fill="white"/>
</g>
<defs>
<clipPath id="clip0_299_374">
<rect width="20" height="20" fill="white" transform="matrix(1 0 0 -1 0.633301 20.8525)"/>
</clipPath>
</defs>
</svg>
