<svg width="325" height="437" viewBox="0 0 325 437" fill="none" xmlns="http://www.w3.org/2000/svg">
<path d="M380.14 433.351L253.217 340.445L127.474 436.889C127.216 417.799 127.806 398.673 127.511 379.583C127.401 371.622 125.595 363.441 126.221 354.78C126.848 346.12 127.695 344.72 133.96 338.934C166.797 308.677 209.399 283.211 243.23 253.397C253.402 245.916 262.468 255.608 270.686 261.21C306.581 285.791 340.928 313.099 375.902 338.97C377.523 341.366 378.592 343.614 378.961 346.562C381.209 365.32 378.334 390.639 378.887 410.392C379.071 417.615 381.246 425.686 380.103 433.351H380.14Z" fill="#000" fill-opacity="0.13" style="mix-blend-mode:multiply"/>
<path d="M380.141 0.0683307L358.914 154.631L502.936 216.102L500.983 219.455L424.365 262.095C419.095 262.942 414.488 260.915 409.697 259.183C377.34 247.464 335.512 227.711 304.187 212.417C287.013 204.051 280.048 204.198 281.006 182.492C281.89 162.37 286.681 137.089 289.408 116.524C291.915 97.6188 293.573 71.8215 297.811 54.0951C299.322 47.7564 302.455 43.0392 307.725 39.2433C323.608 27.7451 353.938 13.1144 372.255 3.42197C373.581 2.72176 379.441 -0.631881 380.141 0.105183V0.0683307Z" fill="#000" fill-opacity="0.13" style="mix-blend-mode:multiply"/>
<path d="M0 216.139L144.022 154.704L122.795 0.105183C123.458 -0.631881 129.318 2.72176 130.681 3.42197C148.998 13.0775 179.328 27.7451 195.211 39.2433C200.481 43.0392 203.614 47.7195 205.125 54.0951C207.815 95.9972 220.124 140.995 221.93 182.492C222.888 204.456 215.26 204.419 197.939 212.785C166.65 227.969 125.485 247.501 93.2386 259.183C87.6738 261.21 81.8141 263.79 75.8808 261.247L1.95322 219.455L0 216.102V216.139Z" fill="#000" fill-opacity="0.13" style="mix-blend-mode:multiply"/>
</svg>
