<svg width="21" height="20" viewBox="0 0 21 20" fill="none" xmlns="http://www.w3.org/2000/svg">
<g clip-path="url(#clip0_298_346)">
<path d="M20.65 10.1333C20.65 9.64444 20.4834 9.23333 20.15 8.9C19.8167 8.56666 19.4056 8.4 18.9167 8.4H3.78336V3C3.78336 2.55555 3.93891 2.17777 4.25002 1.86666C4.47225 1.64444 4.7278 1.51111 5.01669 1.46666C5.30558 1.42222 5.60558 1.44444 5.91669 1.53333C5.51669 2.15555 5.36114 2.84444 5.45002 3.6C5.53891 4.35555 5.85002 5 6.38336 5.53333L6.51669 5.73333C6.65002 5.82222 6.79447 5.86666 6.95002 5.86666C7.10558 5.86666 7.2278 5.82222 7.31669 5.73333L11.1167 1.93333C11.25 1.8 11.3167 1.65555 11.3167 1.5C11.3167 1.34444 11.25 1.2 11.1167 1.06666L10.9834 0.933331C10.4056 0.355553 9.70558 0.0444412 8.88336 -3.8147e-06C8.06114 -0.0444469 7.33891 0.177774 6.71669 0.666664C6.18336 0.355553 5.60558 0.23333 4.98336 0.299997C4.36114 0.366663 3.8278 0.622219 3.38336 1.06666C2.85002 1.6 2.58336 2.24444 2.58336 3V8.4H2.38336C1.89447 8.4 1.48336 8.56666 1.15002 8.9C0.816691 9.23333 0.650024 9.64444 0.650024 10.1333C0.650024 10.5333 0.761136 10.8778 0.983358 11.1667C1.20558 11.4556 1.47225 11.6667 1.78336 11.8V13.0667C1.78336 14.1333 2.07225 15.1111 2.65002 16C3.2278 16.8889 3.96114 17.5778 4.85002 18.0667L4.31669 19.1333C4.2278 19.3111 4.21669 19.4667 4.28336 19.6C4.35002 19.7333 4.45002 19.8444 4.58336 19.9333C4.71669 20.0222 4.86114 20.0333 5.01669 19.9667C5.17225 19.9 5.29447 19.8 5.38336 19.6667L5.98336 18.4667C6.4278 18.5556 6.89447 18.6 7.38336 18.6H13.9167C14.4056 18.6 14.8722 18.5556 15.3167 18.4667L15.9167 19.6667C16.0056 19.8 16.1278 19.9 16.2834 19.9667C16.4389 20.0333 16.5834 20.0222 16.7167 19.9333C16.85 19.8444 16.95 19.7333 17.0167 19.6C17.0834 19.4667 17.0722 19.3111 16.9834 19.1333L16.45 18.0667C17.3389 17.5778 18.0722 16.8889 18.65 16C19.2278 15.1111 19.5167 14.1333 19.5167 13.0667V11.8C19.8278 11.6667 20.0945 11.4556 20.3167 11.1667C20.5389 10.8778 20.65 10.5333 20.65 10.1333ZM9.85003 1.53333L6.98336 4.46666C6.67225 4.02222 6.53891 3.55555 6.58336 3.06666C6.6278 2.57777 6.8278 2.15555 7.18336 1.8C7.53891 1.44444 7.97225 1.24444 8.48336 1.2C8.99447 1.15555 9.45002 1.26666 9.85003 1.53333ZM2.38336 9.6H18.9167C19.05 9.6 19.1722 9.65555 19.2834 9.76666C19.3945 9.87778 19.45 10.0111 19.45 10.1667C19.45 10.3222 19.3945 10.4556 19.2834 10.5667C19.1722 10.6778 19.05 10.7333 18.9167 10.7333H2.38336C2.25002 10.7333 2.1278 10.6778 2.01669 10.5667C1.90558 10.4556 1.85002 10.3222 1.85002 10.1667C1.85002 10.0111 1.90558 9.87778 2.01669 9.76666C2.1278 9.65555 2.25002 9.6 2.38336 9.6ZM18.3167 13.0667C18.3167 13.8667 18.1167 14.6 17.7167 15.2667C17.3167 15.9333 16.7834 16.4667 16.1167 16.8667C15.45 17.2667 14.7167 17.4667 13.9167 17.4667H7.38336C6.58336 17.4667 5.85002 17.2667 5.18336 16.8667C4.51669 16.4667 3.98336 15.9333 3.58336 15.2667C3.18336 14.6 2.98336 13.8667 2.98336 13.0667V11.9333H18.3167V13.0667ZM9.11669 5.93333C9.11669 6.11111 9.17225 6.25555 9.28336 6.36666C9.39447 6.47777 9.5278 6.53333 9.68336 6.53333C9.83891 6.53333 9.97225 6.47777 10.0834 6.36666C10.1945 6.25555 10.25 6.11111 10.25 5.93333C10.25 5.75555 10.1945 5.61111 10.0834 5.5C9.97225 5.38889 9.83891 5.33333 9.68336 5.33333C9.5278 5.33333 9.39447 5.38889 9.28336 5.5C9.17225 5.61111 9.11669 5.75555 9.11669 5.93333ZM10.7834 4.26666C10.7834 4.44444 10.8389 4.58889 10.95 4.7C11.0611 4.81111 11.1945 4.86666 11.35 4.86666C11.5056 4.86666 11.6389 4.81111 11.75 4.7C11.8611 4.58889 11.9167 4.44444 11.9167 4.26666C11.9167 4.08889 11.8611 3.94444 11.75 3.83333C11.6389 3.72222 11.5056 3.66666 11.35 3.66666C11.1945 3.66666 11.0611 3.72222 10.95 3.83333C10.8389 3.94444 10.7834 4.08889 10.7834 4.26666ZM11.1834 6.33333C11.1834 6.46666 11.2389 6.6 11.35 6.73333C11.4611 6.86666 11.5945 6.93333 11.75 6.93333C11.9056 6.93333 12.0389 6.86666 12.15 6.73333C12.2611 6.6 12.3167 6.45555 12.3167 6.3C12.3167 6.14444 12.2611 6.01111 12.15 5.9C12.0389 5.78889 11.9056 5.73333 11.75 5.73333C11.5945 5.73333 11.4611 5.78889 11.35 5.9C11.2389 6.01111 11.1834 6.15555 11.1834 6.33333Z" fill="white"/>
</g>
<defs>
<clipPath id="clip0_298_346">
<rect width="20" height="20" fill="white" transform="matrix(1 0 0 -1 0.650024 20)"/>
</clipPath>
</defs>
</svg>
