<svg width="861" height="861" viewBox="0 0 861 861" fill="none" xmlns="http://www.w3.org/2000/svg">
<g clip-path="url(#clip0_298_333)">
<path d="M220.585 67.3827L160.905 282.223L377.129 341.52L436.809 126.68L220.585 67.3827Z" fill="#ffff" fill-opacity="0.18" style="mix-blend-mode:multiply"/>
<path d="M703.774 591.459L643.889 808.592L426.756 748.707L486.641 531.574L703.774 591.459Z" fill="#ffff" fill-opacity="0.18" style="mix-blend-mode:multiply"/>
<path d="M162.097 280.802L3.54144 438.453L162.207 595.993L320.763 438.342L162.097 280.802Z" fill="#ffff" fill-opacity="0.18" style="mix-blend-mode:multiply"/>
<path d="M702.908 280.029L544.381 437.707L703.074 595.22L861.602 437.542L702.908 280.029Z" fill="#ffff" fill-opacity="0.18" style="mix-blend-mode:multiply"/>
<path d="M376.84 534.231L160.133 591.765L218.037 807.084L434.744 749.55L376.84 534.231Z" fill="#ffff" fill-opacity="0.18" style="mix-blend-mode:multiply"/>
<path d="M647.178 68.8403L430.461 126.336L488.328 341.665L705.044 284.169L647.178 68.8403Z" fill="#ffff" fill-opacity="0.18" style="mix-blend-mode:multiply"/>
</g>
<defs>
<clipPath id="clip0_298_333">
<rect width="861" height="861" fill="white"/>
</clipPath>
</defs>
</svg>
