<svg width="200" height="200" viewBox="0 0 200 200" fill="none" xmlns="http://www.w3.org/2000/svg">
<path d="M94.5375 59.0375C121.019 58.8604 146.669 68.2734 166.75 85.5375M100.5 91.5C93.6741 100.675 85.0358 108.35 75.121 114.048C65.2062 119.746 54.2263 123.346 42.8625 124.625M100.5 91.5C111.843 92.8545 122.796 96.4868 132.7 102.179C142.605 107.871 151.257 115.506 158.138 124.625M100.5 91.5C91.8819 70.2575 91.8819 46.4925 100.5 25.25M132.3 102.1C119.148 125.378 97.9434 143.049 72.675 151.788M100.5 25.25C63.9111 25.25 34.25 54.9111 34.25 91.5C34.25 128.089 63.9111 157.75 100.5 157.75C137.089 157.75 166.75 128.089 166.75 91.5C166.75 54.9111 137.089 25.25 100.5 25.25ZM62.7375 37.175C57.5557 63.257 62.0292 90.3333 75.325 113.363" stroke="black" stroke-width="5" stroke-linecap="round" stroke-linejoin="round"/>
</svg>
