<svg width="138" height="137" viewBox="0 0 138 137" fill="none" xmlns="http://www.w3.org/2000/svg">
<path fill-rule="evenodd" clip-rule="evenodd" d="M69 0C50.8327 0 33.4094 7.21694 20.5632 20.0632C7.71694 32.9094 0.5 50.3327 0.5 68.5C0.5 86.6673 7.71694 104.091 20.5632 116.937C33.4094 129.783 50.8327 137 69 137C87.1673 137 104.591 129.783 117.437 116.937C130.283 104.091 137.5 86.6673 137.5 68.5C137.5 50.3327 130.283 32.9094 117.437 20.0632C104.591 7.21694 87.1673 0 69 0ZM67.6671 22.8219C67.8581 22.8204 68.0475 22.8573 68.224 22.9304C68.4005 23.0034 68.5605 23.1111 68.6946 23.2472L76.7719 31.353C76.9075 31.4853 77.0155 31.6432 77.0894 31.8176C77.1634 31.992 77.2019 32.1794 77.2027 32.3688C77.2035 32.5582 77.1665 32.7459 77.094 32.9209C77.0215 33.0959 76.9149 33.2548 76.7804 33.3881C76.6459 33.5215 76.4862 33.6268 76.3106 33.6978C76.1349 33.7688 75.9469 33.8041 75.7575 33.8017C75.5681 33.7993 75.3811 33.7592 75.2073 33.6838C75.0335 33.6084 74.8765 33.4991 74.7454 33.3624L69 27.5941V49.9194C69 50.2979 68.8497 50.6608 68.582 50.9285C68.3144 51.1961 67.9514 51.3465 67.5729 51.3465C67.1944 51.3465 66.8314 51.1961 66.5638 50.9285C66.2962 50.6608 66.1458 50.2979 66.1458 49.9194V27.6854L60.3719 33.1797C60.0975 33.4408 59.7305 33.5823 59.3518 33.5729C58.9732 33.5636 58.6137 33.4041 58.3525 33.1297C58.0914 32.8553 57.9499 32.4884 57.9593 32.1097C57.9687 31.731 58.1281 31.3716 58.4025 31.1104L66.6967 23.2186C66.9581 22.9681 67.305 22.8263 67.6671 22.8219ZM51.5839 28.8756C51.8709 28.8754 52.1514 28.9617 52.3887 29.1233C52.6259 29.285 52.8089 29.5144 52.9137 29.7817C53.0185 30.0489 53.0402 30.3416 52.9761 30.6214C52.912 30.9012 52.765 31.1552 52.5543 31.3502L46.5406 37.0528H60.4375C60.816 37.0528 61.179 37.2031 61.4466 37.4708C61.7142 37.7384 61.8646 38.1014 61.8646 38.4799V49.908C61.8646 50.2864 61.7142 50.6494 61.4466 50.9171C61.179 51.1847 60.816 51.335 60.4375 51.335C60.059 51.335 59.696 51.1847 59.4284 50.9171C59.1608 50.6494 59.0104 50.2864 59.0104 49.908V39.907H46.7404L51.9977 45.7238C52.1235 45.8628 52.2206 46.0253 52.2836 46.2019C52.3465 46.3785 52.3741 46.5657 52.3647 46.753C52.3553 46.9402 52.3091 47.1238 52.2287 47.2932C52.1484 47.4626 52.0355 47.6145 51.8964 47.7402C51.7574 47.866 51.5949 47.9631 51.4183 48.0261C51.2417 48.089 51.0544 48.1166 50.8672 48.1072C50.6799 48.0978 50.4964 48.0516 50.327 47.9712C50.1576 47.8909 50.0057 47.778 49.8799 47.6389L42.2022 39.1506C41.9511 38.8735 41.8188 38.5089 41.8338 38.1353C41.8487 37.7617 42.0097 37.4088 42.2821 37.1527L50.5935 29.2838C50.8581 29.0243 51.2133 28.8779 51.5839 28.8756ZM83.5163 28.8756C83.7075 28.8707 83.8978 28.9043 84.0758 28.9745C84.2538 29.0446 84.4158 29.1498 84.5524 29.2838L92.8637 37.1555C93.1353 37.4116 93.2957 37.7638 93.3106 38.1368C93.3256 38.5097 93.1938 38.8737 92.9436 39.1506L85.2659 47.6389C85.1401 47.778 84.9882 47.8909 84.8188 47.9712C84.6495 48.0516 84.4659 48.0978 84.2786 48.1072C84.0914 48.1166 83.9041 48.089 83.7275 48.0261C83.5509 47.9631 83.3885 47.866 83.2494 47.7402C83.1104 47.6145 82.9974 47.4626 82.9171 47.2932C82.8368 47.1238 82.7906 46.9402 82.7811 46.753C82.7717 46.5657 82.7993 46.3785 82.8623 46.2019C82.9252 46.0253 83.0224 45.8628 83.1481 45.7238L88.4055 39.907H76.1354V49.908C76.1354 50.2864 75.9851 50.6494 75.7174 50.9171C75.4498 51.1847 75.0868 51.335 74.7083 51.335C74.3298 51.335 73.9669 51.1847 73.6992 50.9171C73.4316 50.6494 73.2812 50.2864 73.2812 49.908V38.4799C73.2812 38.1014 73.4316 37.7384 73.6992 37.4708C73.9669 37.2031 74.3298 37.0528 74.7083 37.0528H88.6081L82.5915 31.3502C82.3835 31.1579 82.2373 30.908 82.1717 30.6324C82.1061 30.3568 82.1241 30.0679 82.2232 29.8025C82.3224 29.5371 82.4983 29.3072 82.7286 29.1421C82.9589 28.9771 83.2331 28.8843 83.5163 28.8756ZM56.1334 54.1578C56.3601 54.1528 56.5848 54.2019 56.7887 54.301C56.9927 54.4001 57.1701 54.5464 57.3063 54.7277C57.4424 54.9091 57.5334 55.1203 57.5716 55.3438C57.6099 55.5673 57.5943 55.7967 57.5262 56.013L40.4012 113.096C40.3538 113.283 40.2691 113.458 40.1522 113.611C40.0354 113.764 39.8888 113.892 39.7213 113.986C39.5538 114.081 39.3689 114.141 39.1776 114.163C38.9863 114.184 38.7927 114.167 38.6083 114.111C38.4239 114.056 38.2526 113.964 38.1048 113.841C37.9569 113.718 37.8355 113.566 37.7478 113.395C37.6601 113.223 37.608 113.036 37.5946 112.844C37.5812 112.652 37.6068 112.459 37.6698 112.277L54.7948 55.1939C54.8783 54.9005 55.0536 54.6416 55.2951 54.4551C55.5365 54.2687 55.8284 54.1645 56.1334 54.1578ZM78.9668 54.1578C79.2791 54.1552 79.5836 54.2552 79.8337 54.4423C80.0837 54.6295 80.2655 54.8935 80.351 55.1939L97.476 112.277C97.5391 112.459 97.5646 112.652 97.5512 112.844C97.5378 113.036 97.4857 113.223 97.3981 113.395C97.3104 113.566 97.189 113.718 97.0411 113.841C96.8932 113.964 96.7219 114.056 96.5375 114.111C96.3532 114.167 96.1595 114.184 95.9683 114.163C95.777 114.141 95.592 114.081 95.4245 113.986C95.257 113.892 95.1105 113.764 94.9936 113.611C94.8767 113.458 94.792 113.283 94.7446 113.096L77.6196 56.013C77.5527 55.8004 77.5366 55.5751 77.5724 55.3551C77.6083 55.1352 77.6952 54.9266 77.8262 54.7463C77.9571 54.566 78.1285 54.4188 78.3266 54.3166C78.5246 54.2144 78.7439 54.16 78.9668 54.1578ZM61.8646 62.7574H73.2812C73.6597 62.7574 74.0227 62.9078 74.2904 63.1754C74.558 63.443 74.7083 63.806 74.7083 64.1845V84.1637C74.7083 84.5422 74.558 84.9051 74.2904 85.1728C74.0227 85.4404 73.6597 85.5908 73.2812 85.5908H61.8646C61.4861 85.5908 61.1231 85.4404 60.8555 85.1728C60.5879 84.9051 60.4375 84.5422 60.4375 84.1637V64.1845C60.4375 63.806 60.5879 63.443 60.8555 63.1754C61.1231 62.9078 61.4861 62.7574 61.8646 62.7574ZM63.2917 65.6116V82.7366H71.8542V65.6116H63.2917ZM61.8646 91.2991H73.2812C73.6597 91.2991 74.0227 91.4494 74.2904 91.7171C74.558 91.9847 74.7083 92.3477 74.7083 92.7262V112.705C74.7083 113.084 74.558 113.447 74.2904 113.714C74.0227 113.982 73.6597 114.132 73.2812 114.132H61.8646C61.4861 114.132 61.1231 113.982 60.8555 113.714C60.5879 113.447 60.4375 113.084 60.4375 112.705V92.7262C60.4375 92.3477 60.5879 91.9847 60.8555 91.7171C61.1231 91.4494 61.4861 91.2991 61.8646 91.2991ZM63.2917 94.1533V111.278H71.8542V94.1533H63.2917Z" fill="black"/>
</svg>
