<svg width="200" height="200" viewBox="0 0 200 200" fill="none" xmlns="http://www.w3.org/2000/svg">
<g clip-path="url(#clip0_198_536)">
<g clip-path="url(#clip1_198_536)">
<path d="M59.5 104.25H86.5M73 90.75V117.75M120.25 111H120.318M140.5 97.5H140.568M135.91 63.75H64.09C57.4094 63.7516 50.9666 66.2298 46.007 70.7056C41.0474 75.1815 37.9233 81.3371 37.2385 87.9825C37.198 88.3335 37.171 88.6642 37.1237 89.0085C36.577 93.558 32.5 127.578 32.5 138C32.5 143.371 34.6335 148.521 38.4311 152.319C42.2287 156.117 47.3794 158.25 52.75 158.25C59.5 158.25 62.875 154.875 66.25 151.5L75.7945 141.956C78.3256 139.424 81.7589 138.001 85.339 138H114.661C118.241 138.001 121.674 139.424 124.206 141.956L133.75 151.5C137.125 154.875 140.5 158.25 147.25 158.25C152.621 158.25 157.771 156.117 161.569 152.319C165.367 148.521 167.5 143.371 167.5 138C167.5 127.571 163.423 93.558 162.876 89.0085C162.829 88.671 162.802 88.3335 162.762 87.9892C162.078 81.3426 158.955 75.1854 153.995 70.7081C149.035 66.2309 142.592 63.7517 135.91 63.75Z" stroke="black" stroke-width="5" stroke-linecap="round" stroke-linejoin="round"/>
</g>
</g>
<defs>
<clipPath id="clip0_198_536">
<rect width="200" height="200" fill="white"/>
</clipPath>
<clipPath id="clip1_198_536">
<rect width="182" height="182" fill="white" transform="translate(10 9)"/>
</clipPath>
</defs>
</svg>
