<svg width="200" height="200" viewBox="0 0 200 200" fill="none" xmlns="http://www.w3.org/2000/svg">
<path d="M28.9584 172.042L39.5751 161.425M162.425 38.5751L173.042 27.9584M82.8001 118.2L119.2 81.8001M143.436 105.824C146.281 108.669 150.14 110.267 154.163 110.267C158.186 110.267 162.045 108.669 164.89 105.824C167.735 102.979 169.333 99.1207 169.333 95.0974C169.333 91.0742 167.735 87.2157 164.89 84.3708L151.482 70.9711C154.327 73.8149 158.185 75.4122 162.208 75.4115C164.2 75.4111 166.172 75.0185 168.012 74.256C169.852 73.4934 171.524 72.3759 172.932 70.9673C174.34 69.5586 175.457 67.8864 176.219 66.0462C176.981 64.2059 177.373 62.2335 177.372 60.2418C177.372 58.25 176.979 56.2778 176.217 54.4378C175.454 52.5978 174.337 50.926 172.928 49.5178L151.482 28.0722C148.638 25.2273 144.781 23.6286 140.758 23.6279C136.736 23.6272 132.878 25.2245 130.033 28.0684C127.188 30.9122 125.589 34.7698 125.589 38.7923C125.588 42.8149 127.185 46.6729 130.029 49.5178L116.629 36.1105C115.221 34.7018 113.548 33.5845 111.708 32.8221C109.867 32.0597 107.895 31.6674 105.903 31.6674C103.911 31.6674 101.938 32.0597 100.097 32.8221C98.257 33.5845 96.5847 34.7018 95.1761 36.1105C93.7674 37.5191 92.65 39.1914 91.8877 41.0319C91.1253 42.8724 90.733 44.845 90.733 46.8371C90.733 48.8292 91.1253 50.8018 91.8877 52.6423C92.65 54.4828 93.7674 56.1551 95.1761 57.5637L143.436 105.824ZM50.5178 171.928C53.3617 174.773 57.2192 176.371 61.2418 176.372C63.2335 176.373 65.2059 175.981 67.0462 175.219C68.8864 174.457 70.5586 173.34 71.9673 171.932C73.3759 170.524 74.4934 168.852 75.256 167.012C76.0185 165.172 76.4111 163.2 76.4115 161.208C76.4119 159.216 76.0199 157.244 75.258 155.403C74.4961 153.563 73.3792 151.891 71.9711 150.482L85.3708 163.89C88.2157 166.735 92.0742 168.333 96.0974 168.333C100.121 168.333 103.979 166.735 106.824 163.89C109.669 161.045 111.267 157.186 111.267 153.163C111.267 149.14 109.669 145.281 106.824 142.436L58.5637 94.1761C57.1551 92.7674 55.4828 91.65 53.6423 90.8877C51.8018 90.1253 49.8292 89.733 47.8371 89.733C45.845 89.733 43.8724 90.1253 42.0319 90.8877C40.1914 91.65 38.5191 92.7674 37.1105 94.1761C35.7018 95.5847 34.5845 97.257 33.8221 99.0975C33.0597 100.938 32.6674 102.911 32.6674 104.903C32.6674 106.895 33.0597 108.867 33.8221 110.708C34.5845 112.548 35.7018 114.221 37.1105 115.629L50.5178 129.029C47.6729 126.185 43.8149 124.588 39.7923 124.589C35.7698 124.589 31.9122 126.188 29.0684 129.033C26.2245 131.878 24.6272 135.736 24.6279 139.758C24.6286 143.781 26.2273 147.638 29.0722 150.482L50.5178 171.928Z" stroke="black" stroke-width="5" stroke-linecap="round" stroke-linejoin="round"/>
</svg>
