<svg width="138" height="138" viewBox="0 0 138 138" fill="none" xmlns="http://www.w3.org/2000/svg">
<rect x="0.5" y="0.5" width="137" height="137" rx="68.5" fill="black"/>
<path d="M96.1562 46.7812V39.375H101.094C101.749 39.375 102.376 39.1149 102.839 38.6519C103.302 38.1889 103.562 37.561 103.562 36.9062C103.562 36.2515 103.302 35.6236 102.839 35.1606C102.376 34.6976 101.749 34.4375 101.094 34.4375H36.9062C36.2515 34.4375 35.6236 34.6976 35.1606 35.1606C34.6976 35.6236 34.4375 36.2515 34.4375 36.9062C34.4375 37.561 34.6976 38.1889 35.1606 38.6519C35.6236 39.1149 36.2515 39.375 36.9062 39.375H41.8438V46.7812C39.8795 46.7812 37.9957 47.5615 36.6067 48.9505C35.2178 50.3394 34.4375 52.2232 34.4375 54.1875V96.1562C34.4375 98.1205 35.2178 100.004 36.6067 101.393C37.9957 102.782 39.8795 103.562 41.8438 103.562H96.1562C98.1205 103.562 100.004 102.782 101.393 101.393C102.782 100.004 103.562 98.1205 103.562 96.1562V54.1875C103.562 52.2232 102.782 50.3394 101.393 48.9505C100.004 47.5615 98.1205 46.7812 96.1562 46.7812ZM46.7812 39.375H91.2188V46.7812H46.7812V39.375ZM98.625 96.1562C98.625 96.811 98.3649 97.4389 97.9019 97.9019C97.4389 98.3649 96.811 98.625 96.1562 98.625H41.8438C41.189 98.625 40.5611 98.3649 40.0981 97.9019C39.6351 97.4389 39.375 96.811 39.375 96.1562V54.1875C39.375 53.5327 39.6351 52.9048 40.0981 52.4418C40.5611 51.9789 41.189 51.7188 41.8438 51.7188H96.1562C96.811 51.7188 97.4389 51.9789 97.9019 52.4418C98.3649 52.9048 98.625 53.5327 98.625 54.1875V96.1562ZM82.5781 67.7656H76.4062V61.5938C76.4062 60.2842 75.886 59.0284 74.9601 58.1024C74.0341 57.1765 72.7783 56.6562 71.4688 56.6562H66.5312C65.2217 56.6562 63.9659 57.1765 63.0399 58.1024C62.114 59.0284 61.5938 60.2842 61.5938 61.5938V67.7656H55.4219C54.1124 67.7656 52.8565 68.2858 51.9305 69.2118C51.0046 70.1377 50.4844 71.3936 50.4844 72.7031V77.6406C50.4844 78.9501 51.0046 80.206 51.9305 81.132C52.8565 82.0579 54.1124 82.5781 55.4219 82.5781H61.5938V88.75C61.5938 90.0595 62.114 91.3154 63.0399 92.2413C63.9659 93.1673 65.2217 93.6875 66.5312 93.6875H71.4688C72.7783 93.6875 74.0341 93.1673 74.9601 92.2413C75.886 91.3154 76.4062 90.0595 76.4062 88.75V82.5781H82.5781C83.8876 82.5781 85.1435 82.0579 86.0695 81.132C86.9954 80.206 87.5156 78.9501 87.5156 77.6406V72.7031C87.5156 71.3936 86.9954 70.1377 86.0695 69.2118C85.1435 68.2858 83.8876 67.7656 82.5781 67.7656ZM82.5781 77.6406H73.9375C73.2827 77.6406 72.6548 77.9007 72.1918 78.3637C71.7288 78.8267 71.4688 79.4546 71.4688 80.1094V88.75H66.5312V80.1094C66.5312 79.4546 66.2711 78.8267 65.8082 78.3637C65.3452 77.9007 64.7173 77.6406 64.0625 77.6406H55.4219V72.7031H64.0625C64.7173 72.7031 65.3452 72.443 65.8082 71.98C66.2711 71.5171 66.5312 70.8891 66.5312 70.2344V61.5938H71.4688V70.2344C71.4688 70.8891 71.7288 71.5171 72.1918 71.98C72.6548 72.443 73.2827 72.7031 73.9375 72.7031H82.5781V77.6406Z" fill="white"/>
</svg>
