<svg width="386" height="105" viewBox="0 0 386 105" fill="none" xmlns="http://www.w3.org/2000/svg">
<g clip-path="url(#clip0_284_268)">
<path d="M30.747 -0.000172987L22.2927 30.4342L52.9232 38.8344L61.3775 8.4L30.747 -0.000172987Z" fill="#222222"/>
<path d="M99.2602 74.5638L90.8119 105L60.1796 96.6058L68.6279 66.1696L99.2602 74.5638Z" fill="#222222"/>
<path d="M22.4615 30.2331L0.000488281 52.5659L22.4772 74.8832L44.9383 52.5503L22.4615 30.2331Z" fill="#222222"/>
<path d="M99.0733 30.1236L76.6162 52.4603L99.0969 74.7737L121.554 52.437L99.0733 30.1236Z" fill="#222222"/>
<path d="M52.8822 66.1338L22.1833 74.2841L30.3861 104.786L61.0849 96.6361L52.8822 66.1338Z" fill="#222222"/>
<path d="M91.1784 0.206528L60.4781 8.35144L68.6755 38.8551L99.3758 30.7102L91.1784 0.206528Z" fill="#222222"/>
<path d="M184.26 68.5865C184.26 70.1568 184.464 71.2784 184.88 71.9514C185.287 72.6244 186.103 72.9573 187.312 72.9573H188.659C189.191 72.9573 189.788 72.8849 190.473 72.7402V81.5975C190.014 81.7422 189.431 81.9159 188.725 82.1041C188.011 82.285 187.276 82.4586 186.525 82.6034C185.768 82.7553 185.018 82.8639 184.268 82.9435C183.51 83.0158 182.869 83.0593 182.345 83.0593C179.709 83.0593 177.524 82.531 175.798 81.489C174.071 80.4469 172.943 78.6161 172.411 75.9893C169.855 78.4569 166.708 80.2515 162.987 81.3732C159.272 82.4876 155.675 83.0593 152.215 83.0593C149.579 83.0593 147.066 82.6974 144.655 81.9955C142.245 81.2791 140.118 80.2298 138.283 78.8549C136.433 77.4655 134.969 75.7143 133.877 73.5796C132.777 71.4521 132.245 68.97 132.245 66.1261C132.245 62.5369 132.901 59.6278 134.219 57.3846C135.537 55.1413 137.27 53.3901 139.419 52.1165C141.56 50.8429 143.963 49.9311 146.636 49.3666C149.309 48.8022 151.989 48.3753 154.699 48.0786C157.029 47.6299 159.251 47.3115 161.363 47.1234C163.467 46.9425 165.325 46.624 166.941 46.1754C168.558 45.7195 169.84 45.032 170.78 44.0913C171.719 43.1651 172.192 41.7612 172.192 39.8942C172.192 38.2443 171.799 36.9056 171.005 35.8563C170.219 34.8143 169.236 34.011 168.078 33.4466C166.912 32.8894 165.616 32.5131 164.188 32.3322C162.761 32.144 161.399 32.05 160.125 32.05C156.512 32.05 153.541 32.8025 151.21 34.2932C148.872 35.7839 147.554 38.0996 147.263 41.2474H134.401C134.619 37.5062 135.522 34.4018 137.11 31.9342C138.683 29.4738 140.701 27.491 143.141 25.9931C145.58 24.5024 148.348 23.4531 151.436 22.8525C154.517 22.2591 157.677 21.9552 160.918 21.9552C163.773 21.9552 166.599 22.2591 169.389 22.8525C172.163 23.4531 174.669 24.4228 176.883 25.7688C179.097 27.1147 180.888 28.8587 182.243 30.9862C183.59 33.1137 184.275 35.7116 184.275 38.7726V68.5937L184.26 68.5865ZM171.391 52.4421C169.432 53.7157 167.029 54.4828 164.174 54.7433C161.319 55.0038 158.457 55.3946 155.594 55.9228C154.247 56.1471 152.922 56.4655 151.647 56.878C150.373 57.2905 149.244 57.8477 148.26 58.5569C147.285 59.266 146.513 60.2067 145.952 61.3573C145.384 62.5224 145.1 63.919 145.1 65.5617C145.1 66.98 145.515 68.1813 146.345 69.1509C147.175 70.1206 148.166 70.8877 149.338 71.4449C150.504 72.0093 151.778 72.4001 153.177 72.6244C154.568 72.8487 155.828 72.9573 156.956 72.9573C158.384 72.9573 159.928 72.7764 161.581 72.4001C163.234 72.031 164.8 71.3942 166.264 70.4969C167.735 69.5996 168.952 68.4635 169.935 67.0741C170.911 65.6992 171.399 63.9914 171.399 61.9724V52.4421H171.391Z" fill="#222222"/>
<path d="M206.758 62.8698C207.136 66.611 208.571 69.2233 211.047 70.7213C213.531 72.212 216.502 72.9573 219.962 72.9573C221.163 72.9573 222.533 72.8705 224.077 72.6823C225.613 72.4869 227.063 72.1396 228.425 71.6113C229.779 71.0903 230.886 70.3233 231.753 69.3174C232.612 68.3115 233.013 66.98 232.933 65.3374C232.867 63.6947 232.27 62.356 231.141 61.2995C230.005 60.2574 228.556 59.418 226.793 58.7812C225.023 58.1517 223.013 57.6089 220.756 57.153C218.498 56.7116 216.204 56.2195 213.873 55.6985C211.47 55.1775 209.146 54.5407 206.932 53.7953C204.711 53.05 202.716 52.0441 200.953 50.7705C199.191 49.5042 197.77 47.8687 196.722 45.8932C195.666 43.9104 195.141 41.4573 195.141 38.5483C195.141 35.4077 195.913 32.7809 197.45 30.6389C198.994 28.5114 200.946 26.7964 203.32 25.4866C205.694 24.184 208.316 23.2578 211.215 22.7368C214.106 22.2157 216.874 21.948 219.503 21.948C222.511 21.948 225.388 22.2664 228.133 22.9032C230.879 23.54 233.362 24.5676 235.584 25.9859C237.798 27.4042 239.648 29.2568 241.104 31.5435C242.575 33.8229 243.493 36.5655 243.872 39.7785H230.449C229.838 36.7175 228.432 34.6623 226.211 33.6131C223.989 32.5638 221.447 32.0428 218.593 32.0428C217.689 32.0428 216.619 32.1224 215.381 32.2599C214.135 32.4191 212.97 32.694 211.885 33.1065C210.792 33.519 209.867 34.1124 209.11 34.9011C208.36 35.6899 207.988 36.7102 207.988 37.9838C207.988 39.5541 208.535 40.8205 209.627 41.7974C210.712 42.7743 212.147 43.5776 213.917 44.2071C215.679 44.8439 217.697 45.3867 219.954 45.8353C222.212 46.284 224.543 46.7688 226.946 47.2898C229.277 47.8181 231.571 48.4477 233.829 49.193C236.086 49.9456 238.096 50.9514 239.866 52.2178C241.629 53.4914 243.063 55.0979 244.149 57.0445C245.241 58.9911 245.787 61.3791 245.787 64.2157C245.787 67.653 245.001 70.5693 243.413 72.9573C241.84 75.3525 239.786 77.2991 237.266 78.7898C234.746 80.2805 231.95 81.366 228.862 82.039C225.774 82.712 222.729 83.0521 219.714 83.0521C216.029 83.0521 212.628 82.6396 209.511 81.8146C206.379 80.9969 203.677 79.7378 201.383 78.059C199.081 76.3801 197.282 74.2888 195.971 71.785C194.646 69.2812 193.954 66.3071 193.881 62.8698H206.743H206.758Z" fill="#222222"/>
<path d="M249.749 23.5183H259.458V6.13647H272.319V23.5183H283.936V33.0486H272.319V63.9914C272.319 65.3301 272.378 66.4952 272.487 67.4576C272.596 68.4346 272.866 69.2523 273.273 69.9325C273.681 70.5982 274.3 71.1048 275.131 71.4377C275.961 71.7778 277.082 71.9442 278.517 71.9442C279.42 71.9442 280.323 71.9297 281.227 71.8935C282.122 71.8574 283.025 71.7271 283.929 71.5028V81.366C282.494 81.5107 281.117 81.6627 279.755 81.8074C278.408 81.9594 277.002 82.0317 275.582 82.0317C272.196 82.0317 269.472 81.7133 267.403 81.0765C265.335 80.447 263.718 79.5062 262.553 78.276C261.388 77.0386 260.601 75.49 260.179 73.623C259.763 71.756 259.523 69.6286 259.443 67.2261V33.0341H249.735V23.5038L249.749 23.5183Z" fill="#222222"/>
<path d="M293.892 23.5183H305.967V34.7347H306.193C306.571 33.1572 307.307 31.6231 308.392 30.1396C309.485 28.6417 310.796 27.274 312.34 26.0438C313.876 24.8064 315.595 23.815 317.474 23.0696C319.36 22.3243 321.268 21.948 323.228 21.948C324.735 21.948 325.762 21.9842 326.323 22.0638C326.891 22.1361 327.474 22.2157 328.078 22.2809V34.6117C327.175 34.467 326.25 34.3295 325.311 34.2137C324.371 34.0979 323.446 34.0472 322.55 34.0472C320.358 34.0472 318.312 34.4814 316.396 35.3353C314.473 36.1964 312.798 37.4628 311.371 39.1489C309.943 40.8277 308.815 42.9046 307.984 45.3722C307.154 47.8326 306.739 50.6765 306.739 53.8967V81.4745H293.877V23.5183H293.892Z" fill="#222222"/>
<path d="M342.863 55.807C342.863 58.0503 343.183 60.2212 343.824 62.3125C344.465 64.4111 345.419 66.2419 346.708 67.805C347.983 69.368 349.607 70.6272 351.559 71.5606C353.503 72.4941 355.841 72.9573 358.55 72.9573C362.308 72.9573 365.338 72.1613 367.632 70.5475C369.926 68.9411 371.645 66.5314 372.774 63.3184H384.959C384.281 66.459 383.116 69.2595 381.455 71.7343C379.795 74.2019 377.807 76.2715 375.476 77.9576C373.145 79.6365 370.531 80.9173 367.632 81.7712C364.741 82.6323 361.711 83.0665 358.55 83.0665C353.962 83.0665 349.898 82.3139 346.366 80.8232C342.834 79.3253 339.833 77.2412 337.393 74.542C334.953 71.8501 333.111 68.6371 331.865 64.8959C330.627 61.1692 330.008 57.0517 330.008 52.5651C330.008 48.4549 330.664 44.5472 331.982 40.8494C333.293 37.1516 335.179 33.8952 337.619 31.0948C340.066 28.3015 343.016 26.0727 346.482 24.4228C349.942 22.7874 353.846 21.9552 358.215 21.9552C362.804 21.9552 366.919 22.9104 370.567 24.8136C374.209 26.7167 377.246 29.2422 379.649 32.3828C382.06 35.5162 383.808 39.1271 384.9 43.2012C385.978 47.2753 386.27 51.4724 385.745 55.807H342.863ZM372.883 47.3983C372.738 45.3794 372.301 43.4328 371.587 41.5658C370.873 39.6988 369.89 38.0706 368.652 36.6885C367.414 35.3063 365.906 34.1847 364.144 33.3236C362.374 32.4697 360.4 32.0355 358.215 32.0355C356.03 32.0355 353.904 32.4335 352.061 33.215C350.211 33.9966 348.645 35.082 347.32 36.4642C346.002 37.8463 344.946 39.4745 344.159 41.3342C343.373 43.2085 342.936 45.2274 342.863 47.3911H372.883V47.3983Z" fill="#222222"/>
</g>
<defs>
<clipPath id="clip0_284_268">
<rect width="386" height="105" fill="white"/>
</clipPath>
</defs>
</svg>
