<svg width="117" height="28" viewBox="0 0 117 28" fill="none" xmlns="http://www.w3.org/2000/svg">
<path d="M52.545 20.4236C52.545 20.9292 52.6104 21.2897 52.7413 21.5052C52.8721 21.7228 53.1273 21.8283 53.5112 21.8283H53.9386C54.1066 21.8283 54.2963 21.8042 54.5123 21.758V24.6027C54.3683 24.651 54.1829 24.7038 53.9583 24.7653C53.7314 24.8247 53.5003 24.8774 53.2625 24.9258C53.0248 24.9742 52.7849 25.0093 52.5472 25.0335C52.3072 25.0577 52.1066 25.0709 51.9387 25.0709C51.1033 25.0709 50.4119 24.9016 49.8645 24.5653C49.3171 24.2311 48.9616 23.642 48.7936 22.8C47.9845 23.5936 46.9878 24.1696 45.8078 24.5301C44.6323 24.8884 43.4916 25.0709 42.3967 25.0709C41.5614 25.0709 40.7653 24.9566 40.0042 24.728C39.2408 24.4993 38.5691 24.163 37.9867 23.7189C37.4022 23.2726 36.9377 22.7077 36.5931 22.024C36.2441 21.3403 36.074 20.5423 36.074 19.63C36.074 18.478 36.2812 17.5416 36.6999 16.8227C37.1165 16.1016 37.6639 15.5367 38.3444 15.13C39.0227 14.7211 39.7839 14.4287 40.6301 14.2462C41.4742 14.066 42.3269 13.9297 43.1819 13.8307C43.9191 13.6856 44.6235 13.5867 45.2931 13.5252C45.9583 13.4658 46.5494 13.3647 47.0597 13.2196C47.5723 13.0745 47.9779 12.8525 48.2767 12.5513C48.5734 12.2523 48.7238 11.8017 48.7238 11.2015C48.7238 10.6717 48.5995 10.2408 48.3465 9.90448C48.0979 9.56814 47.7882 9.31093 47.4196 9.13066C47.051 8.9526 46.641 8.83169 46.1873 8.77233C45.7337 8.71298 45.304 8.6822 44.9005 8.6822C43.7555 8.6822 42.8177 8.92402 42.0783 9.40326C41.3389 9.8825 40.9224 10.6277 40.8286 11.6368H36.7566C36.8264 10.4343 37.1121 9.43843 37.6138 8.64483C38.1132 7.85342 38.7523 7.2181 39.5243 6.73666C40.2986 6.25742 41.1732 5.92107 42.1503 5.72982C43.1252 5.53856 44.1263 5.44183 45.1513 5.44183C46.0565 5.44183 46.9485 5.53856 47.8318 5.72982C48.7108 5.92327 49.5025 6.23324 50.2069 6.66631C50.9092 7.09939 51.4741 7.65777 51.9059 8.34146C52.3334 9.02514 52.5493 9.86052 52.5493 10.8432V20.4236H52.545ZM48.4708 15.2377C47.8514 15.6466 47.0903 15.8928 46.1851 15.9763C45.28 16.0621 44.3727 16.1874 43.4676 16.3544C43.0401 16.427 42.6214 16.5303 42.2179 16.66C41.8144 16.7919 41.4567 16.9722 41.147 17.1986C40.8373 17.4272 40.593 17.7284 40.4142 18.0999C40.2353 18.4737 40.1437 18.9221 40.1437 19.4497C40.1437 19.9048 40.2746 20.2917 40.5385 20.6039C40.8024 20.916 41.1165 21.1622 41.4851 21.3425C41.8537 21.5228 42.2571 21.6481 42.6999 21.7206C43.1405 21.7932 43.5396 21.8283 43.8973 21.8283C44.3487 21.8283 44.8373 21.769 45.3607 21.6481C45.8842 21.5294 46.3793 21.3249 46.8438 21.0369C47.3084 20.7489 47.6944 20.3818 48.0041 19.9378C48.3138 19.4959 48.4687 18.9485 48.4687 18.3V15.2377H48.4708Z" fill="white"/>
<path d="M59.6703 18.5858C59.7902 19.7861 60.2439 20.628 61.0291 21.1095C61.8164 21.5887 62.7564 21.8283 63.8535 21.8283C64.233 21.8283 64.667 21.7998 65.1577 21.7404C65.6441 21.6788 66.1043 21.5667 66.5339 21.3975C66.9636 21.2282 67.3125 20.9842 67.5874 20.6588C67.8622 20.3335 67.9865 19.907 67.9603 19.3794C67.9385 18.8518 67.7487 18.4209 67.3932 18.0823C67.0334 17.7482 66.5754 17.4778 66.017 17.2712C65.4565 17.0689 64.8197 16.8952 64.1043 16.7501C63.3911 16.6073 62.6626 16.4512 61.9254 16.2819C61.1643 16.1148 60.4293 15.9104 59.727 15.6708C59.0247 15.4311 58.3922 15.108 57.8339 14.6969C57.2755 14.2902 56.8262 13.7648 56.4947 13.1317C56.1589 12.4941 55.9931 11.7071 55.9931 10.7728C55.9931 9.76379 56.2374 8.91962 56.7259 8.23374C57.2145 7.55005 57.8339 6.99826 58.5863 6.57838C59.3366 6.15849 60.1675 5.86392 61.0879 5.69684C62.004 5.52977 62.8785 5.44403 63.7117 5.44403C64.6648 5.44403 65.5765 5.54735 66.4445 5.7496C67.3125 5.95625 68.0999 6.2838 68.8044 6.73886C69.5066 7.19392 70.0912 7.78967 70.5535 8.52392C71.0203 9.25597 71.3103 10.1375 71.4303 11.1685H67.1795C66.9876 10.1837 66.5405 9.52417 65.8382 9.18782C65.1359 8.85147 64.3311 8.6844 63.426 8.6844C63.1425 8.6844 62.8022 8.70858 62.4096 8.75475C62.0149 8.80531 61.6463 8.89544 61.3017 9.02734C60.9549 9.15924 60.6626 9.3505 60.4249 9.60551C60.1872 9.85832 60.0694 10.1859 60.0694 10.5948C60.0694 11.0982 60.2417 11.5071 60.5885 11.8192C60.9331 12.1314 61.3867 12.3886 61.9473 12.5931C62.5056 12.7975 63.1446 12.9734 63.86 13.1163C64.5754 13.2614 65.3126 13.4174 66.0737 13.5845C66.8131 13.7538 67.5394 13.9582 68.2526 14.1979C68.9679 14.4397 69.6048 14.7628 70.1653 15.1695C70.7258 15.5784 71.1773 16.095 71.5219 16.7194C71.8665 17.3459 72.041 18.1131 72.041 19.0232C72.041 20.129 71.7902 21.0633 71.2907 21.8305C70.7913 22.6 70.1413 23.2243 69.3431 23.7035C68.5448 24.1828 67.6593 24.5323 66.6822 24.7477C65.7051 24.9654 64.7411 25.0731 63.7858 25.0731C62.619 25.0731 61.5416 24.9412 60.5558 24.6752C59.5656 24.4114 58.7085 24.0091 57.9822 23.4683C57.2537 22.9297 56.6845 22.257 56.2679 21.4524C55.8491 20.6478 55.6289 19.6937 55.6071 18.588H59.679L59.6703 18.5858Z" fill="white"/>
<path d="M73.282 5.94526H76.355V0.363647H80.427V5.94526H84.1063V9.00756H80.427V18.9463C80.427 19.3772 80.4444 19.7509 80.4815 20.0609C80.5164 20.373 80.6015 20.639 80.7301 20.8567C80.8588 21.0699 81.0573 21.2326 81.319 21.3403C81.5807 21.448 81.9384 21.503 82.3921 21.503C82.6756 21.503 82.9635 21.4964 83.2514 21.4854C83.5371 21.4744 83.8206 21.4326 84.1063 21.3601V24.5279C83.6527 24.5741 83.2143 24.6224 82.7847 24.6708C82.3572 24.7192 81.9144 24.7433 81.463 24.7433C80.3899 24.7433 79.5284 24.64 78.8741 24.4378C78.2198 24.2355 77.7073 23.9344 77.3387 23.5387C76.9701 23.1407 76.7193 22.6417 76.5884 22.0438C76.4575 21.4436 76.3812 20.7599 76.3572 19.9905V9.00756H73.2842V5.94526H73.282Z" fill="white"/>
<path d="M87.26 5.94526H91.0833V9.54835H91.1531C91.2731 9.04053 91.5064 8.5481 91.851 8.07106C92.1956 7.59182 92.6122 7.15215 93.1008 6.75645C93.5871 6.36074 94.1324 6.04198 94.7278 5.80017C95.3232 5.56055 95.9295 5.43964 96.5511 5.43964C97.0266 5.43964 97.3537 5.45283 97.5304 5.47701C97.7114 5.50119 97.8946 5.52537 98.0866 5.54736V9.50878C97.8008 9.46262 97.5086 9.41865 97.212 9.38128C96.9154 9.3461 96.6209 9.32852 96.3374 9.32852C95.6438 9.32852 94.9961 9.46701 94.3897 9.74181C93.7812 10.0166 93.2513 10.4255 92.7976 10.9663C92.344 11.5049 91.9884 12.1732 91.7267 12.9646C91.465 13.756 91.3341 14.6683 91.3341 15.7015V24.5609H87.26V5.94526Z" fill="white"/>
<path d="M102.767 16.3171C102.767 17.0381 102.867 17.735 103.07 18.4055C103.273 19.0782 103.576 19.6652 103.982 20.1686C104.385 20.672 104.9 21.0765 105.52 21.3755C106.137 21.6744 106.876 21.8239 107.733 21.8239C108.924 21.8239 109.884 21.5667 110.608 21.0501C111.334 20.5335 111.877 19.7597 112.235 18.7265H116.095C115.879 19.7355 115.511 20.6346 114.985 21.4304C114.46 22.2218 113.831 22.8879 113.092 23.4287C112.355 23.9673 111.526 24.3784 110.608 24.6532C109.692 24.9302 108.732 25.0687 107.733 25.0687C106.281 25.0687 104.994 24.8269 103.875 24.3476C102.756 23.8662 101.807 23.1957 101.033 22.3296C100.261 21.4656 99.6766 20.4324 99.2819 19.2321C98.8893 18.034 98.693 16.7128 98.693 15.2707C98.693 13.9494 98.9002 12.6942 99.3189 11.5093C99.7355 10.32 100.331 9.27576 101.105 8.37663C101.879 7.47751 102.815 6.76304 103.912 6.23324C105.007 5.70783 106.246 5.44183 107.629 5.44183C109.081 5.44183 110.385 5.7474 111.541 6.36074C112.695 6.97189 113.655 7.78308 114.416 8.79212C115.179 9.79896 115.733 10.9597 116.08 12.2677C116.422 13.5757 116.512 14.9233 116.346 16.3171H102.767ZM112.272 13.6175C112.226 12.969 112.089 12.3447 111.86 11.7445C111.635 11.1466 111.323 10.6233 110.931 10.1771C110.54 9.73301 110.06 9.37468 109.504 9.09769C108.944 8.8229 108.318 8.6844 107.629 8.6844C106.939 8.6844 106.265 8.8119 105.681 9.06252C105.096 9.31313 104.599 9.66047 104.18 10.1067C103.764 10.5508 103.43 11.074 103.182 11.672C102.933 12.2743 102.793 12.9206 102.769 13.6175H112.274H112.272Z" fill="white"/>
<path d="M22.497 27.4254L14.9856 21.8833L7.54399 27.6364C7.52872 26.4977 7.56361 25.3567 7.54617 24.218C7.53962 23.7431 7.43275 23.2551 7.46983 22.7385C7.50691 22.2219 7.55707 22.1383 7.92784 21.7932C9.87113 19.9884 12.3924 18.4693 14.3945 16.6908C14.9965 16.2446 15.533 16.8227 16.0194 17.1569C18.1437 18.6232 20.1764 20.2522 22.2462 21.7954C22.3422 21.9383 22.4054 22.0724 22.4272 22.2483C22.5603 23.3672 22.3901 24.8775 22.4228 26.0558C22.4338 26.4867 22.5624 26.9681 22.4948 27.4254H22.497Z" fill="white"/>
<path d="M22.4972 1.57933L21.2409 10.7992L29.7643 14.4661L29.6487 14.6661L25.1144 17.2096C24.8025 17.2602 24.5299 17.1393 24.2463 17.0359C22.3314 16.3369 19.856 15.1585 18.0021 14.2462C16.9857 13.7472 16.5735 13.756 16.6302 12.4612C16.6826 11.2609 16.9661 9.7528 17.1275 8.52612C17.2758 7.39837 17.374 5.85952 17.6248 4.80211C17.7142 4.424 17.8996 4.14261 18.2115 3.91618C19.1515 3.23029 20.9465 2.35755 22.0304 1.77938C22.1089 1.73761 22.4557 1.53756 22.4972 1.58153V1.57933Z" fill="white"/>
<path d="M0 14.4683L8.52339 10.8036L7.26713 1.58153C7.30639 1.53756 7.65317 1.73761 7.73387 1.77938C8.81783 2.35535 10.6128 3.23029 11.5528 3.91618C11.8647 4.14261 12.0501 4.4218 12.1395 4.80211C12.2987 7.30164 13.0272 9.98582 13.1341 12.4612C13.1908 13.7714 12.7393 13.7692 11.7142 14.2682C9.86253 15.1739 7.42634 16.3391 5.51796 17.0359C5.18863 17.1568 4.84185 17.3107 4.4907 17.159L0.115594 14.6661L0 14.4661V14.4683Z" fill="white"/>
</svg>
