<svg width="235" height="64" viewBox="0 0 235 64" fill="none" xmlns="http://www.w3.org/2000/svg">
<g clip-path="url(#clip0_278_234)">
<path d="M18.7191 -9.23537e-05L13.572 18.5504L32.2201 23.6705L37.3672 5.12001L18.7191 -9.23537e-05Z" fill="white"/>
<path d="M60.4305 45.4484L55.2871 64L36.6378 58.8835L41.7812 40.3319L60.4305 45.4484Z" fill="white"/>
<path d="M13.6748 18.4278L0.000305176 32.0402L13.6843 45.643L27.3588 32.0307L13.6748 18.4278Z" fill="white"/>
<path d="M60.3166 18.3611L46.6445 31.9758L60.3309 45.5763L74.003 31.9616L60.3166 18.3611Z" fill="white"/>
<path d="M32.1951 40.3102L13.5054 45.2779L18.4993 63.8698L37.189 58.902L32.1951 40.3102Z" fill="white"/>
<path d="M55.5102 0.125845L36.8196 5.09036L41.8103 23.6831L60.5008 18.7186L55.5102 0.125845Z" fill="white"/>
<path d="M112.179 41.8051C112.179 42.7622 112.303 43.4459 112.556 43.8561C112.804 44.2663 113.301 44.4692 114.037 44.4692H114.857C115.181 44.4692 115.545 44.4251 115.961 44.3369V49.7356C115.682 49.8239 115.327 49.9297 114.897 50.0444C114.463 50.1547 114.015 50.2605 113.558 50.3487C113.097 50.4414 112.64 50.5075 112.184 50.556C111.722 50.6001 111.332 50.6266 111.013 50.6266C109.408 50.6266 108.078 50.3046 107.027 49.6695C105.976 49.0343 105.289 47.9184 104.965 46.3173C103.409 47.8214 101.493 48.9152 99.2276 49.5989C96.9663 50.2782 94.7759 50.6266 92.6698 50.6266C91.0647 50.6266 89.535 50.4061 88.0673 49.9782C86.5997 49.5416 85.305 48.902 84.1876 48.064C83.0614 47.2171 82.1701 46.1497 81.5051 44.8485C80.8355 43.5518 80.5118 42.0389 80.5118 40.3055C80.5118 38.1177 80.9109 36.3446 81.7134 34.9773C82.516 33.6099 83.5713 32.5425 84.8793 31.7662C86.1829 30.9899 87.6461 30.4342 89.2733 30.0902C90.9006 29.7461 92.5323 29.4859 94.1817 29.305C95.6006 29.0316 96.953 28.8375 98.2388 28.7228C99.5202 28.6126 100.651 28.4185 101.635 28.145C102.62 27.8671 103.4 27.4481 103.972 26.8747C104.544 26.3101 104.832 25.4545 104.832 24.3165C104.832 23.3108 104.593 22.4948 104.109 21.8553C103.631 21.2201 103.032 20.7305 102.327 20.3865C101.618 20.0469 100.828 19.8175 99.9592 19.7072C99.0901 19.5926 98.261 19.5352 97.485 19.5352C95.2858 19.5352 93.4767 19.9939 92.0579 20.9026C90.6346 21.8112 89.832 23.2226 89.6547 25.1413H81.8243C81.9573 22.8609 82.5071 20.9687 83.4737 19.4647C84.4315 17.965 85.6597 16.7565 87.145 15.8434C88.6304 14.9348 90.3153 14.2953 92.1953 13.9292C94.0709 13.5675 95.9952 13.3822 97.9683 13.3822C99.7065 13.3822 101.427 13.5675 103.125 13.9292C104.814 14.2953 106.34 14.8863 107.688 15.7067C109.036 16.5271 110.126 17.5901 110.951 18.8868C111.771 20.1836 112.188 21.7671 112.188 23.6328V41.8095L112.179 41.8051ZM104.344 31.9647C103.152 32.741 101.688 33.2086 99.9503 33.3673C98.2122 33.5261 96.4697 33.7643 94.7271 34.0863C93.9068 34.223 93.0999 34.4171 92.3239 34.6685C91.548 34.9199 90.8607 35.2596 90.2621 35.6918C89.668 36.1241 89.198 36.6975 88.8566 37.3988C88.5107 38.1089 88.3378 38.9602 88.3378 39.9614C88.3378 40.8259 88.5905 41.5581 89.096 42.1492C89.6015 42.7402 90.2045 43.2077 90.9184 43.5474C91.6278 43.8914 92.4037 44.1296 93.2551 44.2663C94.1019 44.403 94.869 44.4692 95.5563 44.4692C96.4253 44.4692 97.3653 44.3589 98.3718 44.1296C99.3784 43.9046 100.332 43.5165 101.223 42.9696C102.119 42.4226 102.859 41.7301 103.458 40.8833C104.052 40.0452 104.349 39.0043 104.349 37.7737V31.9647H104.344Z" fill="white"/>
<path d="M125.876 38.3206C126.106 40.601 126.98 42.1932 128.487 43.1063C129.999 44.0149 131.808 44.4692 133.915 44.4692C134.646 44.4692 135.48 44.4163 136.42 44.3016C137.355 44.1825 138.238 43.9708 139.067 43.6488C139.892 43.3312 140.565 42.8637 141.093 42.2506C141.616 41.6375 141.86 40.8259 141.811 39.8247C141.771 38.8234 141.408 38.0074 140.721 37.3635C140.029 36.7283 139.147 36.2167 138.074 35.8285C136.996 35.4448 135.772 35.114 134.398 34.8361C133.023 34.5671 131.627 34.2671 130.208 33.9496C128.745 33.632 127.33 33.2438 125.982 32.7895C124.63 32.3352 123.415 31.7221 122.342 30.9458C121.269 30.1739 120.404 29.1771 119.766 27.973C119.123 26.7644 118.804 25.2692 118.804 23.4961C118.804 21.5818 119.274 19.9807 120.209 18.6751C121.149 17.3784 122.337 16.333 123.783 15.5347C125.228 14.7407 126.825 14.1762 128.589 13.8586C130.35 13.541 132.035 13.3778 133.635 13.3778C135.466 13.3778 137.218 13.5719 138.889 13.96C140.561 14.3482 142.073 14.9745 143.425 15.839C144.773 16.7035 145.9 17.8327 146.786 19.2265C147.682 20.6159 148.241 22.2875 148.471 24.2459H140.299C139.927 22.3802 139.071 21.1275 137.719 20.4879C136.367 19.8484 134.819 19.5308 133.081 19.5308C132.531 19.5308 131.879 19.5793 131.126 19.6631C130.367 19.7602 129.658 19.9278 128.997 20.1792C128.332 20.4306 127.769 20.7923 127.308 21.2731C126.851 21.7538 126.625 22.3757 126.625 23.152C126.625 24.1092 126.958 24.881 127.623 25.4765C128.283 26.0719 129.157 26.5615 130.234 26.9453C131.307 27.3334 132.536 27.6642 133.91 27.9377C135.285 28.2112 136.703 28.5067 138.167 28.8243C139.586 29.1462 140.982 29.53 142.357 29.9843C143.731 30.443 144.955 31.0561 146.033 31.828C147.106 32.6043 147.979 33.5835 148.64 34.77C149.305 35.9564 149.637 37.412 149.637 39.141C149.637 41.2361 149.158 43.0136 148.192 44.4692C147.234 45.9291 145.984 47.1156 144.45 48.0243C142.915 48.9329 141.213 49.5945 139.333 50.0047C137.453 50.4149 135.599 50.6222 133.764 50.6222C131.52 50.6222 129.45 50.3708 127.552 49.868C125.645 49.3695 124 48.6021 122.603 47.5788C121.202 46.5555 120.107 45.2808 119.309 43.7546C118.502 42.2285 118.081 40.4157 118.036 38.3206H125.867H125.876Z" fill="white"/>
<path d="M152.049 14.335H157.96V3.74033H165.79V14.335H172.862V20.1439H165.79V39.0043C165.79 39.8203 165.826 40.5304 165.892 41.117C165.959 41.7125 166.123 42.2109 166.371 42.6255C166.619 43.0313 166.996 43.3401 167.502 43.5429C168.007 43.7503 168.69 43.8517 169.564 43.8517C170.113 43.8517 170.663 43.8429 171.213 43.8208C171.758 43.7988 172.308 43.7194 172.858 43.5826V49.5945C171.984 49.6827 171.146 49.7753 170.317 49.8636C169.497 49.9562 168.641 50.0003 167.777 50.0003C165.715 50.0003 164.057 49.8062 162.797 49.4181C161.538 49.0343 160.554 48.4609 159.844 47.7111C159.135 46.9569 158.656 46.013 158.399 44.875C158.146 43.737 158 42.4403 157.951 40.9759V20.1351H152.041V14.3261L152.049 14.335Z" fill="white"/>
<path d="M178.924 14.3349H186.275V21.1716H186.413C186.643 20.2101 187.091 19.275 187.752 18.3708C188.417 17.4578 189.215 16.6241 190.155 15.8743C191.09 15.1201 192.137 14.5158 193.281 14.0615C194.429 13.6072 195.591 13.3778 196.784 13.3778C197.701 13.3778 198.327 13.3999 198.668 13.4484C199.014 13.4925 199.369 13.541 199.737 13.5807V21.0966C199.187 21.0084 198.624 20.9246 198.052 20.854C197.48 20.7835 196.917 20.7526 196.371 20.7526C195.037 20.7526 193.791 21.0172 192.625 21.5377C191.454 22.0626 190.434 22.8345 189.565 23.8622C188.696 24.8855 188.009 26.1513 187.503 27.6554C186.998 29.1551 186.745 30.8885 186.745 32.8513V49.6606H178.915V14.3349H178.924Z" fill="white"/>
<path d="M208.738 34.0157C208.738 35.3831 208.933 36.7063 209.323 37.981C209.713 39.2601 210.294 40.376 211.079 41.3287C211.855 42.2815 212.844 43.0489 214.032 43.6179C215.216 44.1869 216.639 44.4692 218.288 44.4692C220.576 44.4692 222.421 43.984 223.818 43.0004C225.214 42.0212 226.261 40.5525 226.948 38.5941H234.366C233.954 40.5084 233.244 42.2153 232.233 43.7238C231.222 45.2279 230.012 46.4893 228.593 47.517C227.174 48.5403 225.582 49.321 223.818 49.8415C222.057 50.3664 220.213 50.631 218.288 50.631C215.495 50.631 213.021 50.1723 210.87 49.2637C208.72 48.3507 206.893 47.0804 205.408 45.4352C203.922 43.7944 202.801 41.836 202.042 39.5556C201.289 37.2841 200.912 34.7744 200.912 32.0397C200.912 29.5344 201.311 27.1526 202.113 24.8987C202.911 22.6448 204.06 20.66 205.545 18.953C207.035 17.2505 208.831 15.8919 210.941 14.8863C213.047 13.8895 215.424 13.3822 218.084 13.3822C220.878 13.3822 223.383 13.9645 225.604 15.1245C227.821 16.2845 229.67 17.8239 231.134 19.7381C232.601 21.648 233.665 23.8489 234.331 26.3322C234.987 28.8155 235.164 31.3737 234.845 34.0157H208.738ZM227.014 28.8904C226.926 27.6598 226.66 26.4733 226.225 25.3354C225.791 24.1974 225.192 23.205 224.438 22.3625C223.685 21.5201 222.767 20.8364 221.694 20.3115C220.616 19.7911 219.415 19.5264 218.084 19.5264C216.754 19.5264 215.46 19.769 214.338 20.2454C213.212 20.7217 212.258 21.3833 211.451 22.2258C210.649 23.0682 210.006 24.0607 209.527 25.1942C209.048 26.3366 208.782 27.5672 208.738 28.886H227.014V28.8904Z" fill="white"/>
</g>
<defs>
<clipPath id="clip0_278_234">
<rect width="235" height="64" fill="white"/>
</clipPath>
</defs>
</svg>
