<svg width="138" height="137" viewBox="0 0 138 137" fill="none" xmlns="http://www.w3.org/2000/svg">
<g clip-path="url(#clip0_284_265)">
<path fill-rule="evenodd" clip-rule="evenodd" d="M69 0C50.8327 0 33.4094 7.21694 20.5632 20.0632C7.71694 32.9094 0.5 50.3327 0.5 68.5C0.5 86.6673 7.71694 104.091 20.5632 116.937C33.4094 129.783 50.8327 137 69 137C87.1673 137 104.591 129.783 117.437 116.937C130.283 104.091 137.5 86.6673 137.5 68.5C137.5 50.3327 130.283 32.9094 117.437 20.0632C104.591 7.21694 87.1673 0 69 0ZM68.9772 25.6875C69.1685 25.6841 69.3586 25.7193 69.5361 25.7909C69.7136 25.8625 69.8749 25.969 70.0104 26.1042L82.1178 38.2201C82.2541 38.3518 82.3628 38.5093 82.4376 38.6834C82.5124 38.8575 82.5517 39.0447 82.5534 39.2342C82.555 39.4237 82.5189 39.6116 82.4472 39.787C82.3754 39.9624 82.2694 40.1217 82.1354 40.2557C82.0014 40.3897 81.8421 40.4957 81.6667 40.5674C81.4913 40.6392 81.3034 40.6753 81.1139 40.6737C80.9245 40.672 80.7372 40.6326 80.5631 40.5579C80.389 40.4831 80.2315 40.3743 80.0999 40.238L78.9896 39.1278V48.5208H81.8438C82.2222 48.5208 82.5852 48.6712 82.8529 48.9388C83.1205 49.2064 83.2708 49.5694 83.2708 49.9479V55.6562C83.2708 56.0347 83.1205 56.3977 82.8529 56.6654C82.5852 56.933 82.2222 57.0833 81.8438 57.0833H80.1769L83.1595 94.1875H87.5521C87.9306 94.1875 88.2936 94.3379 88.5612 94.6055C88.8288 94.8731 88.9792 95.2361 88.9792 95.6146V101.323C88.9792 101.701 88.8288 102.064 88.5612 102.332C88.2936 102.6 87.9306 102.75 87.5521 102.75H50.4479C50.0694 102.75 49.7064 102.6 49.4388 102.332C49.1712 102.064 49.0208 101.701 49.0208 101.323V95.6146C49.0208 95.2361 49.1712 94.8731 49.4388 94.6055C49.7064 94.3379 50.0694 94.1875 50.4479 94.1875H54.8433L57.8231 57.0833H56.1562C55.7778 57.0833 55.4148 56.933 55.1472 56.6654C54.8795 56.3977 54.7292 56.0347 54.7292 55.6562V49.9479C54.7292 49.5694 54.8795 49.2064 55.1472 48.9388C55.4148 48.6712 55.7778 48.5208 56.1562 48.5208H59.0104V39.1278L57.9001 40.238C57.7685 40.3743 57.611 40.4831 57.4369 40.5579C57.2628 40.6326 57.0756 40.672 56.8861 40.6737C56.6966 40.6753 56.5087 40.6392 56.3333 40.5674C56.1579 40.4957 55.9986 40.3897 55.8646 40.2557C55.7306 40.1217 55.6246 39.9624 55.5528 39.787C55.4811 39.6116 55.445 39.4237 55.4466 39.2342C55.4483 39.0447 55.4877 38.8575 55.5624 38.6834C55.6372 38.5093 55.7459 38.3518 55.8822 38.2201L67.9896 26.1042C68.2522 25.8423 68.6063 25.6928 68.9772 25.6875ZM23.3333 26.4353L54.7292 38.9936V46.6371L23.3333 59.1954V26.4353ZM114.667 26.4353V59.1954L83.2708 46.6371V38.9936L114.667 26.4353ZM69 29.1325L61.034 37.1042H76.966L69 29.1325ZM26.1875 30.648V54.9827L51.875 44.702V40.9288L26.1875 30.648ZM111.812 30.648L86.125 40.9288V44.702L111.812 54.9827V30.648ZM61.8646 39.9583V48.5208H67.5729V42.8125H70.4271V48.5208H76.1354V39.9583H61.8646ZM57.5833 51.375V54.2292H80.4167V51.375H57.5833ZM60.7229 57.0833L60.5431 60.4998L76.9203 57.0833H60.7229ZM77.5397 59.8719L60.1692 63.4966L59.998 65.6087L77.7081 61.9154L77.5397 59.8719ZM77.7509 64.8267L59.9466 68.5342L59.6583 72.1676L78.0363 68.3373L77.7509 64.8267ZM78.4501 71.1715L59.2273 75.173L59.0618 77.2851L78.6157 73.2094L78.4501 71.1715ZM78.6614 76.1149L59.0104 80.2135L58.7593 83.3531L78.9068 79.146L78.6614 76.1149ZM79.3178 81.9745L58.3311 86.3557L58.1599 88.4678L79.4805 84.0238L79.3178 81.9745ZM79.5576 86.9236L58.0743 91.4047L57.7574 94.1875H80.2654L79.5576 86.9236ZM51.875 97.0417V99.8958H86.125V97.0417H51.875ZM56.1905 105.553C56.4741 105.558 56.7496 105.648 56.9819 105.811C57.2142 105.973 57.3928 106.202 57.4949 106.466C58.5224 107.907 59.5441 108.45 60.409 108.453C61.308 108.455 62.3698 107.902 63.4344 106.346C63.5555 106.115 63.7376 105.922 63.9611 105.787C64.1845 105.652 64.4406 105.581 64.7016 105.581C64.9414 105.581 65.1774 105.641 65.3879 105.755C65.5984 105.87 65.7766 106.036 65.9061 106.238C66.9935 107.882 68.0838 108.45 69 108.453C69.8848 108.455 70.9351 107.91 71.9883 106.4C72.1038 106.155 72.2867 105.948 72.5157 105.803C72.7447 105.658 73.0102 105.581 73.2812 105.581C73.6154 105.582 73.9386 105.7 74.1946 105.915C74.1965 105.915 74.1984 105.915 74.2003 105.915C74.3328 106.023 74.4449 106.153 74.5314 106.301C75.6017 107.888 76.6749 108.45 77.5796 108.453C78.4302 108.455 79.4291 107.933 80.4395 106.563C80.5202 106.316 80.6672 106.095 80.8644 105.925C81.0616 105.755 81.3016 105.642 81.5583 105.598C81.9216 105.506 82.3066 105.56 82.6302 105.749C82.9538 105.938 83.1901 106.247 83.288 106.609C84.2784 107.933 85.2602 108.45 86.0965 108.453C86.9813 108.455 88.0259 107.91 89.0791 106.4C89.1945 106.155 89.3775 105.948 89.6064 105.803C89.8354 105.658 90.101 105.581 90.372 105.581C90.5623 105.581 90.7507 105.619 90.9261 105.692C91.1016 105.766 91.2606 105.874 91.3938 106.009C91.4134 106.03 91.4325 106.051 91.4509 106.072C91.4655 106.089 91.4798 106.106 91.4937 106.124C91.534 106.171 91.5712 106.22 91.605 106.272C92.6839 107.885 93.7656 108.45 94.6761 108.453C95.5523 108.455 96.5798 107.916 97.6187 106.452C97.7282 106.193 97.9114 105.973 98.1454 105.818C98.3794 105.663 98.6539 105.581 98.9345 105.581C99.1736 105.58 99.4091 105.639 99.6195 105.753C99.6214 105.753 99.6233 105.753 99.6252 105.753C99.6653 105.774 99.7043 105.796 99.7422 105.821C99.7538 105.83 99.7652 105.84 99.7765 105.85C99.8057 105.869 99.8343 105.889 99.8621 105.91C100.012 106.029 100.136 106.178 100.227 106.346C101.286 107.885 102.348 108.444 103.239 108.447C104.158 108.45 105.242 107.89 106.333 106.258C106.434 106.096 106.566 105.956 106.722 105.846C106.879 105.736 107.055 105.659 107.242 105.619C107.429 105.578 107.621 105.576 107.809 105.611C107.997 105.647 108.175 105.72 108.334 105.826C108.493 105.932 108.629 106.068 108.734 106.228C108.839 106.387 108.911 106.566 108.946 106.753C108.981 106.941 108.978 107.134 108.937 107.32C108.896 107.507 108.818 107.683 108.707 107.839C107.274 109.985 105.336 111.301 103.227 111.301C101.666 111.295 100.199 110.556 98.9631 109.3C97.7186 110.565 96.2402 111.301 94.6647 111.301C93.0949 111.295 91.6278 110.553 90.3891 109.289C89.1419 110.559 87.6634 111.301 86.085 111.301C84.5324 111.295 83.0739 110.559 81.8438 109.317C80.6022 110.568 79.1323 111.301 77.5682 111.301C75.9984 111.295 74.5342 110.55 73.2984 109.289C72.0511 110.559 70.5726 111.301 68.9943 111.301C67.4245 111.295 65.9518 110.55 64.713 109.283C63.4658 110.559 61.9788 111.301 60.3975 111.301C58.8306 111.295 57.3607 110.553 56.122 109.289C54.8747 110.559 53.3963 111.301 51.8179 111.301C50.2653 111.295 48.8125 110.559 47.5823 109.317C46.3408 110.568 44.8709 111.301 43.3068 111.301C41.737 111.295 40.27 110.553 39.0312 109.289C37.784 110.559 36.3055 111.301 34.7272 111.301C32.6208 111.295 30.6857 109.965 29.2586 107.81C29.1115 107.596 29.0257 107.346 29.0105 107.086C28.9952 106.827 29.0511 106.568 29.1722 106.338C29.2932 106.108 29.4747 105.916 29.6972 105.781C29.9197 105.647 30.1746 105.576 30.4345 105.576C30.6742 105.575 30.9103 105.635 31.1208 105.75C31.3313 105.864 31.5095 106.03 31.639 106.232C32.7293 107.876 33.8224 108.444 34.7386 108.447C35.6234 108.45 36.668 107.905 37.7212 106.395C37.8367 106.15 38.0196 105.942 38.2486 105.797C38.4775 105.652 38.7431 105.575 39.0141 105.576C39.2044 105.575 39.3928 105.613 39.5683 105.686C39.7437 105.76 39.9027 105.868 40.0359 106.004C40.0556 106.024 40.0746 106.045 40.093 106.067C40.1077 106.083 40.1219 106.1 40.1358 106.118C40.1761 106.165 40.2133 106.215 40.2471 106.266C41.326 107.879 42.402 108.444 43.3125 108.447C44.163 108.45 45.1677 107.927 46.1781 106.552C46.2728 106.267 46.4548 106.02 46.6982 105.845C46.9416 105.669 47.2339 105.575 47.5338 105.576C47.6751 105.576 47.8155 105.597 47.9505 105.638C48.1731 105.692 48.3795 105.798 48.5524 105.948C48.7252 106.098 48.8595 106.288 48.9438 106.5C49.9599 107.91 50.9702 108.444 51.8293 108.447C52.7141 108.45 53.7616 107.905 54.8119 106.406C54.9527 106.1 55.1974 105.853 55.5026 105.71C55.5196 105.7 55.5367 105.69 55.554 105.681C55.5635 105.681 55.5731 105.681 55.5826 105.681C55.7738 105.596 55.9813 105.554 56.1905 105.559V105.553Z" fill="black"/>
</g>
<defs>
<clipPath id="clip0_284_265">
<rect width="137" height="137" fill="white" transform="translate(0.5)"/>
</clipPath>
</defs>
</svg>
