<svg width="137" height="137" viewBox="0 0 137 137" fill="none" xmlns="http://www.w3.org/2000/svg">
<rect width="137" height="137" rx="68.5" fill="black"/>
<path d="M110.446 92.7131C110.446 89.2368 108.184 86.1651 104.873 85.1313L102.955 84.5319V72.1104L106.311 68.754C110.611 64.4537 111.09 57.6061 107.435 52.7514C106.521 51.5377 105.337 50.5787 103.884 50.1142C100.708 49.0954 97.5017 50.1442 95.599 52.5866C91.8235 57.4413 92.258 64.3938 96.6028 68.739L99.9587 72.0954V83.573L86.475 79.3625V28.4178C86.475 27.8184 86.1154 27.279 85.5761 27.0393C74.5644 22.3793 62.4291 22.3793 51.4174 27.0393C50.8631 27.264 50.5185 27.8184 50.5185 28.4178V67.3456L33.9036 57.3814C32.4653 56.3625 30.5926 56.2276 29.0195 57.0367C27.4913 57.8309 26.5325 59.3742 26.5325 61.0674V110.454H25.0343C24.2103 110.454 23.5361 111.128 23.5361 111.952C23.5361 112.776 24.2103 113.451 25.0343 113.451H111.944C112.768 113.451 113.442 112.776 113.442 111.952C113.442 111.128 112.768 110.454 111.944 110.454H110.446V92.7131ZM98.7302 66.6413C95.4941 63.4048 95.1345 58.2504 97.8612 54.5944C98.4755 53.7703 99.3444 53.111 100.348 52.8713C102.131 52.4367 103.884 53.066 104.948 54.4446C107.794 58.1156 107.48 63.3599 104.184 66.6413L102.955 67.87V60.9925C102.955 60.1683 102.281 59.4941 101.457 59.4941C100.633 59.4941 99.9587 60.1683 99.9587 60.9925V67.87L98.7302 66.6413ZM103.989 87.9932C106.071 88.6375 107.465 90.5404 107.465 92.7131V110.454H86.49V82.5241L103.989 87.9932ZM70.0099 89.4766H76.0027V110.454H70.0099V89.4766ZM67.0135 110.454H61.0208V89.4766H67.0135V110.454ZM77.5009 86.4798H59.5226C58.6986 86.4798 58.0244 87.1541 58.0244 87.9782V110.454H53.5299V83.2283L62.6988 81.5651C66.5491 80.8609 70.4594 80.8609 74.3097 81.5651L83.4786 83.2283V110.454H78.9841V87.9782C78.9841 87.1541 78.3099 86.4798 77.4859 86.4798H77.5009ZM53.5149 41.2738L61.0058 39.9103V50.354L53.5149 51.7175V41.2738ZM53.5149 69.743L61.0058 68.3794V78.8231L53.5149 80.1866V69.743ZM83.4786 66.7013L75.9877 65.3377V53.3957L83.4786 54.7592V66.7013ZM72.9913 64.8732C69.9949 64.4837 66.9986 64.4837 64.0022 64.8732V52.9312C66.9986 52.5416 69.9949 52.5416 72.9913 52.9312V64.8732ZM64.0022 67.9C66.9986 67.4804 69.9949 67.4804 72.9913 67.9V78.3736C69.9949 77.984 66.9986 77.984 64.0022 78.3736V67.9ZM75.9877 68.3944L83.4786 69.7579V80.2016L75.9877 78.8381V68.3944ZM83.4786 51.7325L75.9877 50.369V39.9253L83.4786 41.2888V51.7325ZM72.9913 49.9195C69.9949 49.5599 66.9986 49.5599 64.0022 49.9195V39.4608C66.9986 39.0712 69.9949 39.0712 72.9913 39.4608V49.9195ZM53.5149 54.7742L61.0058 53.4107V65.3527L53.5149 66.7162V54.7742ZM83.4786 38.2471L75.9877 36.8836V27.264C78.5196 27.7435 81.0216 28.4627 83.4786 29.4367V38.2471ZM72.9913 26.8295V36.4491C69.9949 36.0895 66.9986 36.0895 64.0022 36.4491V26.8145C66.9986 26.4849 69.9949 26.4849 72.9913 26.8145V26.8295ZM61.0058 27.279V36.8986L53.5149 38.2621V29.4217C55.9719 28.4477 58.4739 27.7285 61.0058 27.249V27.279ZM29.5439 78.9879H41.5294C42.3534 78.9879 43.0276 78.3137 43.0276 77.4896C43.0276 76.6655 42.3534 75.9912 41.5294 75.9912H29.5439V72.9944H35.5366C36.3606 72.9944 37.0348 72.3202 37.0348 71.4961C37.0348 70.672 36.3606 69.9977 35.5366 69.9977H29.5439V61.0674C29.5439 60.2283 30.1431 59.8387 30.3978 59.7038C30.9821 59.4042 31.6413 59.4491 32.2556 59.8837L50.5035 70.8368V110.439H29.5439V78.9729V78.9879Z" fill="white"/>
<path d="M91.2334 107.029H103.364C104.198 107.029 104.88 106.349 104.88 105.518V90.4074C104.88 89.5763 104.198 88.8963 103.364 88.8963H91.2334C90.3994 88.8963 89.7171 89.5763 89.7171 90.4074V105.518C89.7171 106.349 90.3994 107.029 91.2334 107.029ZM92.7497 104.007V99.4735H101.847V104.007H92.7497ZM101.847 91.9184V96.4515H92.7497V91.9184H101.847ZM45.7451 81.3412H33.6149C32.781 81.3412 32.0986 82.0211 32.0986 82.8522V105.518C32.0986 106.349 32.781 107.029 33.6149 107.029H45.7451C46.5791 107.029 47.2614 106.349 47.2614 105.518V82.8522C47.2614 82.0211 46.5791 81.3412 45.7451 81.3412ZM44.2288 84.3632V88.8963H35.1312V84.3632H44.2288ZM44.2288 91.9184V96.4515H35.1312V91.9184H44.2288ZM35.1312 104.007V99.4735H44.2288V104.007H35.1312Z" fill="white"/>
</svg>
