<svg width="200" height="200" viewBox="0 0 200 200" fill="none" xmlns="http://www.w3.org/2000/svg">
<path d="M158.333 41.6667C153.913 41.6667 149.674 43.4227 146.548 46.5483C143.423 49.6739 141.667 53.9131 141.667 58.3334V150M16.6666 150C21.6666 154.167 26.6666 158.333 37.5 158.333C58.3333 158.333 58.3333 141.667 79.1666 141.667C100.833 141.667 99.1666 158.333 120.833 158.333C141.667 158.333 141.667 141.667 162.5 141.667C173.333 141.667 178.333 145.833 183.333 150M58.3333 108.333H141.667M58.3333 75.0001H141.667M75 41.6667C70.5797 41.6667 66.3405 43.4227 63.2149 46.5483C60.0892 49.6739 58.3333 53.9131 58.3333 58.3334V150" stroke="black" stroke-width="5" stroke-linecap="round" stroke-linejoin="round"/>
</svg>
