<svg width="138" height="137" viewBox="0 0 138 137" fill="none" xmlns="http://www.w3.org/2000/svg">
<g clip-path="url(#clip0_334_153)">
<path d="M68.9974 137.007C106.83 137.007 137.5 106.337 137.5 68.5037C137.5 30.6707 106.83 0.000854492 68.9974 0.000854492C31.1644 0.000854492 0.494629 30.6707 0.494629 68.5037C0.494629 106.337 31.1644 137.007 68.9974 137.007Z" fill="#222222"/>
<path d="M44.8958 33.9002C44.683 33.8981 44.4744 33.9596 44.2968 34.0768C44.1192 34.194 43.9807 34.3615 43.8989 34.558C43.8172 34.7545 43.796 34.9709 43.8381 35.1794C43.8803 35.388 43.9837 35.5794 44.1353 35.7288L51.708 43.3016L56.2549 47.8323C56.4566 48.0329 56.5704 48.3053 56.5711 48.5898C56.5719 48.8743 56.4596 49.1476 56.259 49.3493C56.0583 49.551 55.7858 49.6646 55.5013 49.6653C55.2169 49.6661 54.9437 49.5539 54.742 49.3532L50.1951 44.8144L42.6304 37.2416C42.5311 37.1417 42.413 37.0625 42.283 37.0083C42.153 36.954 42.0137 36.9259 41.8728 36.9256C41.5883 36.9248 41.3151 37.037 41.1134 37.2376C40.9117 37.4383 40.798 37.7109 40.7973 37.9954C40.7965 38.2799 40.9088 38.5529 41.1094 38.7546L48.6822 46.3274L53.2291 50.8663C53.4297 51.068 53.542 51.341 53.5412 51.6255C53.5405 51.91 53.4267 52.1826 53.225 52.3832C53.0233 52.5839 52.7501 52.6961 52.4657 52.6953C52.1812 52.6946 51.9087 52.5807 51.708 52.379L47.1773 47.8402L39.5965 40.2756C39.4971 40.1762 39.3792 40.0975 39.2494 40.0437C39.1196 39.9899 38.9805 39.9622 38.84 39.9622C38.6995 39.9622 38.5604 39.9899 38.4306 40.0437C38.3008 40.0975 38.1829 40.1762 38.0835 40.2756C37.9842 40.3749 37.9054 40.4929 37.8516 40.6227C37.7979 40.7525 37.7702 40.8916 37.7702 41.0321C37.7702 41.1726 37.7979 41.3116 37.8516 41.4414C37.9054 41.5712 37.9842 41.6892 38.0835 41.7886L45.6563 49.3532L50.2032 53.8839C50.3031 53.9833 50.3824 54.1013 50.4367 54.2313C50.4909 54.3613 50.519 54.5008 50.5194 54.6417C50.5197 54.7825 50.4924 54.922 50.4388 55.0523C50.3853 55.1826 50.3066 55.301 50.2072 55.4009C50.1079 55.5008 49.9898 55.5802 49.8598 55.6345C49.7298 55.6887 49.5905 55.7168 49.4496 55.7172C49.3087 55.7176 49.1692 55.6903 49.0389 55.6367C48.9086 55.5831 48.7901 55.5044 48.6902 55.4051L44.1434 50.8581L37.3311 44.0539L36.5787 43.2935C36.378 43.0928 36.1059 42.9801 35.8222 42.9801C35.5385 42.9801 35.2664 43.0928 35.0658 43.2935C34.8651 43.4941 34.7524 43.7662 34.7524 44.05C34.7524 44.3337 34.8651 44.6056 35.0658 44.8062L35.8182 45.567L42.6304 52.379L47.1693 56.9179L49.4427 59.1832C49.8887 59.6304 50.4578 59.9348 51.0774 60.0573C51.697 60.1797 52.339 60.1147 52.9216 59.8709L56.2064 58.4874L97.3711 102.104C97.5606 102.303 97.7881 102.463 98.0402 102.573C98.2923 102.684 98.564 102.742 98.8391 102.746C99.1143 102.75 99.3875 102.699 99.6425 102.595C99.8975 102.492 100.129 102.338 100.324 102.144L102.913 99.5713C103.119 99.3645 103.282 99.1185 103.391 98.8479C103.501 98.5772 103.555 98.2875 103.55 97.9956C103.545 97.7037 103.482 97.4156 103.365 97.1484C103.247 96.8813 103.077 96.6406 102.865 96.4403L59.3374 55.3483L60.7128 52.0798C60.9594 51.4969 61.0265 50.8537 60.9055 50.2325C60.7844 49.6112 60.4807 49.0404 60.0332 48.5928L53.2291 41.7804L45.6563 34.2158C45.5574 34.114 45.4392 34.0331 45.3086 33.9775C45.178 33.922 45.0377 33.8928 44.8958 33.8921V33.9002ZM97.6462 37.4843C90.6074 37.5086 84.8227 40.7935 79.2806 46.3274L66.4652 59.1509L74.2483 66.497L102.743 37.9942C101.066 37.6534 99.358 37.4825 97.6462 37.4843ZM62.695 68.4873L36.2146 92.5649C36.0098 92.7504 35.8449 92.9755 35.7298 93.2266C35.6147 93.4778 35.5519 93.7497 35.5451 94.0258C35.5383 94.302 35.5876 94.5767 35.6902 94.8332C35.7928 95.0897 35.9464 95.3226 36.1418 95.5179L39.1757 98.544C40.0091 99.3773 41.3602 99.3773 42.2016 98.544L67.339 73.4064L62.695 68.4873Z" fill="white"/>
</g>
<defs>
<clipPath id="clip0_334_153">
<rect width="137" height="137" fill="white" transform="translate(0.5)"/>
</clipPath>
</defs>
</svg>
