<svg width="138" height="137" viewBox="0 0 138 137" fill="none" xmlns="http://www.w3.org/2000/svg">
<g clip-path="url(#clip0_284_251)">
<path fill-rule="evenodd" clip-rule="evenodd" d="M137.5 68.4364C137.5 106.312 106.812 137 68.9364 137C31.188 137 0.5 106.312 0.5 68.4364C0.5 30.688 31.188 0 68.9364 0C106.812 0 137.5 30.688 137.5 68.4364Z" fill="#0C0C0C"/>
<path d="M52.3507 111.312C51.4676 111.312 50.6206 110.99 49.9962 110.417C49.3717 109.843 49.0209 109.066 49.0209 108.254V28.7455C49.0209 27.9345 49.3717 27.1567 49.9962 26.5832C50.6206 26.0097 51.4676 25.6875 52.3507 25.6875C53.2339 25.6875 54.0808 26.0097 54.7053 26.5832C55.3298 27.1567 55.6806 27.9345 55.6806 28.7455V108.254C55.6806 109.066 55.3298 109.843 54.7053 110.417C54.0808 110.99 53.2339 111.312 52.3507 111.312ZM85.6493 111.312C84.7662 111.312 83.9193 110.99 83.2948 110.417C82.6703 109.843 82.3195 109.066 82.3195 108.254V28.7455C82.3195 27.9345 82.6703 27.1567 83.2948 26.5832C83.9193 26.0097 84.7662 25.6875 85.6493 25.6875C86.5325 25.6875 87.3794 26.0097 88.0039 26.5832C88.6284 27.1567 88.9792 27.9345 88.9792 28.7455V108.254C88.9792 109.066 88.6284 109.843 88.0039 110.417C87.3794 110.99 86.5325 111.312 85.6493 111.312Z" fill="white"/>
<path d="M65.8604 55.8148H40.7437C39.911 55.8148 39.1125 55.4974 38.5237 54.9324C37.9349 54.3674 37.6041 53.6011 37.6041 52.8021V28.7002C37.6041 27.9012 37.9349 27.1349 38.5237 26.5699C39.1125 26.0049 39.911 25.6875 40.7437 25.6875C41.5764 25.6875 42.3749 26.0049 42.9637 26.5699C43.5525 27.1349 43.8833 27.9012 43.8833 28.7002V49.7894H62.7208V28.7002C62.7208 27.9012 63.0516 27.1349 63.6404 26.5699C64.2291 26.0049 65.0277 25.6875 65.8604 25.6875C66.693 25.6875 67.4916 26.0049 68.0804 26.5699C68.6692 27.1349 69 27.9012 69 28.7002V52.8021C69 53.6011 68.6692 54.3674 68.0804 54.9324C67.4916 55.4974 66.693 55.8148 65.8604 55.8148ZM90.977 79.9167H84.6979C83.8652 79.9167 83.0666 79.5993 82.4778 79.0343C81.8891 78.4693 81.5583 77.703 81.5583 76.9039V28.7002C81.5583 27.9012 81.8891 27.1349 82.4778 26.5699C83.0666 26.0049 83.8652 25.6875 84.6979 25.6875C93.3506 25.6875 100.396 32.442 100.396 40.7512V70.8785C100.396 75.8615 96.1699 79.9167 90.977 79.9167ZM87.8375 73.8912H90.977C91.8097 73.8912 92.6083 73.5738 93.1971 73.0088C93.7858 72.4438 94.1166 71.6775 94.1166 70.8785V40.7512C94.1166 36.8226 91.4919 33.4724 87.8375 32.2312V73.8912Z" fill="white"/>
</g>
<defs>
<clipPath id="clip0_284_251">
<rect width="137" height="137" fill="white" transform="translate(0.5)"/>
</clipPath>
</defs>
</svg>
